# MagicaVoxel @ Ephtracy

# group
g diary

# material
mtllib diary.mtl
usemtl palette

# normals
vn -1 0 0
vn 1 0 0
vn 0 0 1
vn 0 0 -1
vn 0 -1 0
vn 0 1 0

# texcoords
vt 0.841797 0.5
vt 0.958984 0.5
vt 0.994141 0.5

# verts
v -15 0 20
v -15 0 -20
v -15 7 20
v -15 7 -20
v -13 2 20
v -13 2 19
v -13 3 20
v -13 3 19
v -12 2 -19
v -12 2 -20
v -12 6 -19
v -12 6 -20
v -14 1 20
v -14 1 19
v -14 1 -19
v -14 1 -20
v -14 6 20
v -14 6 19
v -14 6 -19
v -14 6 -20
v -9 2 20
v -9 2 19
v -9 2 -19
v -9 2 -20
v -9 3 20
v -9 3 19
v -9 6 -19
v -9 6 -20
v 14 1 19
v 14 1 -19
v 14 6 19
v 14 6 -19
v 15 0 20
v 15 0 -20
v 15 1 20
v 15 1 -20
v 15 6 20
v 15 6 -20
v 15 7 20
v 15 7 -20
v -15 0 20
v -15 7 20
v -14 1 20
v -14 6 20
v -13 2 20
v -13 3 20
v -9 2 20
v -9 3 20
v 15 0 20
v 15 1 20
v 15 6 20
v 15 7 20
v -14 1 19
v -14 6 19
v -13 2 19
v -13 3 19
v -9 2 19
v -9 3 19
v 14 1 19
v 14 6 19
v -14 1 -19
v -14 6 -19
v -12 2 -19
v -12 6 -19
v -9 2 -19
v -9 6 -19
v 14 1 -19
v 14 6 -19
v -15 0 -20
v -15 7 -20
v -14 1 -20
v -14 6 -20
v -12 2 -20
v -12 6 -20
v -9 2 -20
v -9 6 -20
v 15 0 -20
v 15 1 -20
v 15 6 -20
v 15 7 -20
v -15 0 20
v 15 0 20
v -15 0 -20
v 15 0 -20
v -13 2 20
v -9 2 20
v -13 2 19
v -9 2 19
v -12 2 -19
v -9 2 -19
v -12 2 -20
v -9 2 -20
v -14 6 20
v 15 6 20
v -14 6 19
v 14 6 19
v -14 6 -19
v -12 6 -19
v -9 6 -19
v 14 6 -19
v -14 6 -20
v -12 6 -20
v -9 6 -20
v 15 6 -20
v -14 1 20
v 15 1 20
v -14 1 19
v 14 1 19
v -14 1 -19
v 14 1 -19
v -14 1 -20
v 15 1 -20
v -13 3 20
v -9 3 20
v -13 3 19
v -9 3 19
v -15 7 20
v 15 7 20
v 5 7 -13
v 6 7 -13
v 8 7 -13
v 9 7 -13
v 10 7 -13
v 11 7 -13
v 4 7 -14
v 5 7 -14
v 6 7 -14
v 7 7 -14
v 8 7 -14
v 9 7 -14
v 10 7 -14
v 11 7 -14
v 12 7 -14
v 4 7 -15
v 5 7 -15
v 6 7 -15
v 7 7 -15
v 8 7 -15
v 10 7 -15
v 11 7 -15
v 4 7 -16
v 5 7 -16
v 6 7 -16
v 7 7 -16
v 9 7 -16
v 10 7 -16
v 11 7 -16
v 4 7 -17
v 5 7 -17
v 7 7 -17
v 9 7 -17
v 11 7 -17
v 12 7 -17
v -15 7 -20
v 15 7 -20

# faces
f 3/3/1 2/3/1 1/3/1
f 4/3/1 2/3/1 3/3/1
f 7/1/1 6/1/1 5/1/1
f 8/1/1 6/1/1 7/1/1
f 11/1/1 10/1/1 9/1/1
f 12/1/1 10/1/1 11/1/1
f 13/3/2 14/3/2 17/3/2
f 17/3/2 14/3/2 18/3/2
f 15/3/2 16/3/2 19/3/2
f 19/3/2 16/3/2 20/3/2
f 21/1/2 22/1/2 25/1/2
f 25/1/2 22/1/2 26/1/2
f 23/1/2 24/1/2 27/1/2
f 27/1/2 24/1/2 28/1/2
f 29/2/2 30/2/2 31/2/2
f 31/2/2 30/2/2 32/2/2
f 33/3/2 34/3/2 35/3/2
f 35/3/2 34/3/2 36/3/2
f 37/3/2 38/3/2 39/3/2
f 39/3/2 38/3/2 40/3/2
f 43/3/3 42/3/3 41/3/3
f 44/3/3 42/3/3 43/3/3
f 47/1/3 46/1/3 45/1/3
f 48/1/3 46/1/3 47/1/3
f 49/3/3 43/3/3 41/3/3
f 50/3/3 43/3/3 49/3/3
f 51/3/3 42/3/3 44/3/3
f 52/3/3 42/3/3 51/3/3
f 55/2/3 54/2/3 53/2/3
f 56/2/3 54/2/3 55/2/3
f 57/2/3 55/2/3 53/2/3
f 58/2/3 54/2/3 56/2/3
f 59/2/3 57/2/3 53/2/3
f 59/2/3 58/2/3 57/2/3
f 60/2/3 54/2/3 58/2/3
f 60/2/3 58/2/3 59/2/3
f 61/2/4 62/2/4 63/2/4
f 63/2/4 62/2/4 64/2/4
f 61/2/4 63/2/4 65/2/4
f 61/2/4 65/2/4 67/2/4
f 65/2/4 66/2/4 67/2/4
f 67/2/4 66/2/4 68/2/4
f 69/3/4 70/3/4 71/3/4
f 71/3/4 70/3/4 72/3/4
f 72/3/4 70/3/4 74/3/4
f 73/1/4 74/1/4 75/1/4
f 74/3/4 70/3/4 76/3/4
f 75/1/4 74/1/4 76/1/4
f 69/3/4 71/3/4 77/3/4
f 77/3/4 71/3/4 78/3/4
f 76/3/4 70/3/4 79/3/4
f 79/3/4 70/3/4 80/3/4
f 83/3/5 82/3/5 81/3/5
f 84/3/5 82/3/5 83/3/5
f 87/1/5 86/1/5 85/1/5
f 88/1/5 86/1/5 87/1/5
f 91/1/5 90/1/5 89/1/5
f 92/1/5 90/1/5 91/1/5
f 95/3/5 94/3/5 93/3/5
f 96/3/5 94/3/5 95/3/5
f 100/3/5 94/3/5 96/3/5
f 101/3/5 98/3/5 97/3/5
f 102/3/5 98/3/5 101/3/5
f 103/3/5 100/3/5 99/3/5
f 104/3/5 94/3/5 100/3/5
f 104/3/5 100/3/5 103/3/5
f 105/3/6 106/3/6 107/3/6
f 107/3/6 106/3/6 108/3/6
f 108/3/6 106/3/6 110/3/6
f 109/3/6 110/3/6 111/3/6
f 110/3/6 106/3/6 112/3/6
f 111/3/6 110/3/6 112/3/6
f 113/1/6 114/1/6 115/1/6
f 115/1/6 114/1/6 116/1/6
f 117/3/6 118/3/6 119/3/6
f 119/3/6 118/3/6 120/3/6
f 120/3/6 118/3/6 121/3/6
f 121/3/6 118/3/6 122/3/6
f 122/3/6 118/3/6 123/3/6
f 123/3/6 118/3/6 124/3/6
f 117/3/6 119/3/6 125/3/6
f 119/1/6 120/1/6 126/1/6
f 125/3/6 119/3/6 126/3/6
f 120/3/6 121/3/6 127/3/6
f 126/1/6 120/1/6 127/1/6
f 127/3/6 121/3/6 128/3/6
f 121/1/6 122/1/6 129/1/6
f 128/3/6 121/3/6 129/3/6
f 122/3/6 123/3/6 130/3/6
f 129/1/6 122/1/6 130/1/6
f 123/1/6 124/1/6 131/1/6
f 130/3/6 123/3/6 131/3/6
f 124/3/6 118/3/6 132/3/6
f 131/1/6 124/1/6 132/1/6
f 132/3/6 118/3/6 133/3/6
f 117/3/6 125/3/6 134/3/6
f 125/1/6 126/1/6 134/1/6
f 127/3/6 128/3/6 135/3/6
f 134/1/6 126/1/6 135/1/6
f 126/3/6 127/3/6 135/3/6
f 135/3/6 128/3/6 136/3/6
f 128/1/6 129/1/6 137/1/6
f 136/3/6 128/3/6 137/3/6
f 130/3/6 131/3/6 138/3/6
f 137/1/6 129/1/6 138/1/6
f 129/3/6 130/3/6 138/3/6
f 131/3/6 132/3/6 138/3/6
f 138/3/6 132/3/6 139/3/6
f 132/1/6 133/1/6 140/1/6
f 139/3/6 132/3/6 140/3/6
f 117/3/6 134/3/6 141/3/6
f 134/3/6 135/3/6 141/3/6
f 135/1/6 136/1/6 142/1/6
f 141/3/6 135/3/6 142/3/6
f 136/3/6 137/3/6 143/3/6
f 142/1/6 136/1/6 143/1/6
f 138/3/6 139/3/6 143/3/6
f 137/3/6 138/3/6 143/3/6
f 143/3/6 139/3/6 144/3/6
f 144/3/6 139/3/6 145/3/6
f 139/1/6 140/1/6 146/1/6
f 145/3/6 139/3/6 146/3/6
f 140/1/6 133/1/6 147/1/6
f 146/1/6 140/1/6 147/1/6
f 141/1/6 142/1/6 148/1/6
f 117/3/6 141/3/6 148/3/6
f 142/3/6 143/3/6 149/3/6
f 148/1/6 142/1/6 149/1/6
f 143/3/6 144/3/6 149/3/6
f 144/1/6 145/1/6 150/1/6
f 149/3/6 144/3/6 150/3/6
f 145/3/6 146/3/6 151/3/6
f 150/1/6 145/1/6 151/1/6
f 146/3/6 147/3/6 151/3/6
f 147/1/6 133/1/6 152/1/6
f 151/3/6 147/3/6 152/3/6
f 133/3/6 118/3/6 153/3/6
f 152/1/6 133/1/6 153/1/6
f 150/3/6 151/3/6 154/3/6
f 151/3/6 152/3/6 154/3/6
f 152/3/6 153/3/6 154/3/6
f 117/3/6 148/3/6 154/3/6
f 149/3/6 150/3/6 154/3/6
f 148/3/6 149/3/6 154/3/6
f 153/3/6 118/3/6 155/3/6
f 154/3/6 153/3/6 155/3/6
