# MagicaVoxel @ Ephtracy

# group
g documents

# material
mtllib documents.mtl
usemtl palette

# normals
vn -1 0 0
vn 1 0 0
vn 0 0 1
vn 0 0 -1
vn 0 -1 0
vn 0 1 0

# texcoords
vt 0.306641 0.5
vt 0.537109 0.5
vt 0.958984 0.5

# verts
v -20 0 20
v -20 0 -20
v -20 4 20
v -20 4 -20
v 2 0 20
v 2 0 18
v 2 1 19
v 2 1 18
v 2 3 19
v 2 3 18
v 2 3 -8
v 2 3 -16
v 2 3 -20
v 2 4 20
v 2 4 -8
v 2 4 -16
v 2 4 -20
v 3 0 18
v 3 0 16
v 3 3 18
v 3 3 16
v 3 3 -8
v 3 3 -9
v 3 3 -15
v 3 3 -16
v 3 4 -8
v 3 4 -9
v 3 4 -15
v 3 4 -16
v 4 0 16
v 4 0 13
v 4 3 16
v 4 3 13
v 4 3 -9
v 4 3 -15
v 4 4 -9
v 4 4 -15
v 5 0 13
v 5 0 10
v 5 0 -19
v 5 0 -20
v 5 3 13
v 5 3 10
v 5 3 -19
v 5 3 -20
v 6 0 10
v 6 0 7
v 6 3 10
v 6 3 7
v 7 0 7
v 7 0 4
v 7 3 7
v 7 3 4
v 8 0 4
v 8 0 1
v 8 0 -18
v 8 0 -19
v 8 3 4
v 8 3 1
v 8 3 -18
v 8 3 -19
v 9 0 1
v 9 0 -2
v 9 3 1
v 9 3 -2
v 10 0 -2
v 10 0 -5
v 10 3 -2
v 10 3 -5
v 11 0 -5
v 11 0 -8
v 11 0 -17
v 11 0 -18
v 11 3 -5
v 11 3 -8
v 11 3 -17
v 11 3 -18
v 12 0 -8
v 12 0 -11
v 12 3 -8
v 12 3 -11
v 13 0 -11
v 13 0 -14
v 13 3 -11
v 13 3 -14
v 14 0 -14
v 14 0 -17
v 14 3 -14
v 14 3 -17
v -20 0 20
v -20 4 20
v 2 0 20
v 2 4 20
v 2 0 18
v 2 1 18
v 2 3 18
v 3 0 18
v 3 3 18
v 3 0 16
v 3 3 16
v 4 0 16
v 4 3 16
v 4 0 13
v 4 3 13
v 5 0 13
v 5 3 13
v 5 0 10
v 5 3 10
v 6 0 10
v 6 3 10
v 6 0 7
v 6 3 7
v 7 0 7
v 7 3 7
v 7 0 4
v 7 3 4
v 8 0 4
v 8 3 4
v 8 0 1
v 8 3 1
v 9 0 1
v 9 3 1
v 9 0 -2
v 9 3 -2
v 10 0 -2
v 10 3 -2
v 10 0 -5
v 10 3 -5
v 11 0 -5
v 11 3 -5
v 2 3 -8
v 2 4 -8
v 3 3 -8
v 3 4 -8
v 11 0 -8
v 11 3 -8
v 12 0 -8
v 12 3 -8
v 3 3 -9
v 3 4 -9
v 4 3 -9
v 4 4 -9
v 12 0 -11
v 12 3 -11
v 13 0 -11
v 13 3 -11
v 13 0 -14
v 13 3 -14
v 14 0 -14
v 14 3 -14
v 3 3 -15
v 3 4 -15
v 4 3 -15
v 4 4 -15
v 2 3 -16
v 2 4 -16
v 3 3 -16
v 3 4 -16
v 11 0 -17
v 11 3 -17
v 14 0 -17
v 14 3 -17
v 8 0 -18
v 8 3 -18
v 11 0 -18
v 11 3 -18
v 5 0 -19
v 5 3 -19
v 8 0 -19
v 8 3 -19
v -20 0 -20
v -20 4 -20
v 2 0 -20
v 2 3 -20
v 2 4 -20
v 5 0 -20
v 5 3 -20
v -20 0 20
v 2 0 20
v 2 0 18
v 3 0 18
v 3 0 16
v 4 0 16
v 4 0 13
v 5 0 13
v 5 0 10
v 6 0 10
v 6 0 7
v 7 0 7
v 7 0 4
v 8 0 4
v 8 0 1
v 9 0 1
v 9 0 -2
v 10 0 -2
v 10 0 -5
v 11 0 -5
v 11 0 -8
v 12 0 -8
v 12 0 -11
v 13 0 -11
v 13 0 -14
v 14 0 -14
v 11 0 -17
v 14 0 -17
v 8 0 -18
v 11 0 -18
v 5 0 -19
v 8 0 -19
v -20 0 -20
v 2 0 -20
v 5 0 -20
v 2 3 18
v 3 3 18
v 3 3 16
v 4 3 16
v 4 3 13
v 5 3 13
v 5 3 10
v 6 3 10
v 6 3 7
v 7 3 7
v 7 3 4
v 8 3 4
v 8 3 1
v 9 3 1
v 9 3 -2
v 10 3 -2
v 10 3 -5
v 11 3 -5
v 2 3 -8
v 3 3 -8
v 11 3 -8
v 12 3 -8
v 3 3 -9
v 4 3 -9
v 12 3 -11
v 13 3 -11
v 13 3 -14
v 14 3 -14
v 3 3 -15
v 4 3 -15
v 2 3 -16
v 3 3 -16
v 11 3 -17
v 14 3 -17
v 8 3 -18
v 11 3 -18
v 5 3 -19
v 8 3 -19
v 2 3 -20
v 5 3 -20
v -20 4 20
v 2 4 20
v 2 4 -8
v 3 4 -8
v 3 4 -9
v 4 4 -9
v 3 4 -15
v 4 4 -15
v 2 4 -16
v 3 4 -16
v -20 4 -20
v 2 4 -20

# faces
f 3/2/1 2/2/1 1/2/1
f 4/2/1 2/2/1 3/2/1
f 5/2/2 6/2/2 7/2/2
f 7/2/2 6/2/2 8/2/2
f 5/2/2 7/2/2 9/2/2
f 7/3/2 8/3/2 9/3/2
f 9/3/2 8/3/2 10/3/2
f 9/2/2 10/2/2 14/2/2
f 5/2/2 9/2/2 14/2/2
f 10/2/2 11/2/2 14/2/2
f 14/2/2 11/2/2 15/2/2
f 12/2/2 13/2/2 16/2/2
f 16/2/2 13/2/2 17/2/2
f 18/3/2 19/3/2 20/3/2
f 20/3/2 19/3/2 21/3/2
f 22/2/2 23/2/2 26/2/2
f 26/2/2 23/2/2 27/2/2
f 24/2/2 25/2/2 28/2/2
f 28/2/2 25/2/2 29/2/2
f 30/3/2 31/3/2 32/3/2
f 32/3/2 31/3/2 33/3/2
f 34/2/2 35/2/2 36/2/2
f 36/2/2 35/2/2 37/2/2
f 38/3/2 39/3/2 42/3/2
f 42/3/2 39/3/2 43/3/2
f 40/3/2 41/3/2 44/3/2
f 44/3/2 41/3/2 45/3/2
f 46/3/2 47/3/2 48/3/2
f 48/3/2 47/3/2 49/3/2
f 50/3/2 51/3/2 52/3/2
f 52/3/2 51/3/2 53/3/2
f 54/3/2 55/3/2 58/3/2
f 58/3/2 55/3/2 59/3/2
f 56/3/2 57/3/2 60/3/2
f 60/3/2 57/3/2 61/3/2
f 62/3/2 63/3/2 64/3/2
f 64/3/2 63/3/2 65/3/2
f 66/3/2 67/3/2 68/3/2
f 68/3/2 67/3/2 69/3/2
f 70/3/2 71/3/2 74/3/2
f 74/3/2 71/3/2 75/3/2
f 72/3/2 73/3/2 76/3/2
f 76/3/2 73/3/2 77/3/2
f 78/3/2 79/3/2 80/3/2
f 80/3/2 79/3/2 81/3/2
f 82/3/2 83/3/2 84/3/2
f 84/3/2 83/3/2 85/3/2
f 86/3/2 87/3/2 88/3/2
f 88/3/2 87/3/2 89/3/2
f 92/2/3 91/2/3 90/2/3
f 93/2/3 91/2/3 92/2/3
f 97/3/3 95/3/3 94/3/3
f 97/3/3 96/3/3 95/3/3
f 98/3/3 96/3/3 97/3/3
f 101/3/3 100/3/3 99/3/3
f 102/3/3 100/3/3 101/3/3
f 105/3/3 104/3/3 103/3/3
f 106/3/3 104/3/3 105/3/3
f 109/3/3 108/3/3 107/3/3
f 110/3/3 108/3/3 109/3/3
f 113/3/3 112/3/3 111/3/3
f 114/3/3 112/3/3 113/3/3
f 117/3/3 116/3/3 115/3/3
f 118/3/3 116/3/3 117/3/3
f 121/3/3 120/3/3 119/3/3
f 122/3/3 120/3/3 121/3/3
f 125/3/3 124/3/3 123/3/3
f 126/3/3 124/3/3 125/3/3
f 129/3/3 128/3/3 127/3/3
f 130/3/3 128/3/3 129/3/3
f 133/2/3 132/2/3 131/2/3
f 134/2/3 132/2/3 133/2/3
f 137/3/3 136/3/3 135/3/3
f 138/3/3 136/3/3 137/3/3
f 141/2/3 140/2/3 139/2/3
f 142/2/3 140/2/3 141/2/3
f 145/3/3 144/3/3 143/3/3
f 146/3/3 144/3/3 145/3/3
f 149/3/3 148/3/3 147/3/3
f 150/3/3 148/3/3 149/3/3
f 151/2/4 152/2/4 153/2/4
f 153/2/4 152/2/4 154/2/4
f 155/2/4 156/2/4 157/2/4
f 157/2/4 156/2/4 158/2/4
f 159/3/4 160/3/4 161/3/4
f 161/3/4 160/3/4 162/3/4
f 163/3/4 164/3/4 165/3/4
f 165/3/4 164/3/4 166/3/4
f 167/3/4 168/3/4 169/3/4
f 169/3/4 168/3/4 170/3/4
f 171/2/4 172/2/4 173/2/4
f 173/2/4 172/2/4 174/2/4
f 174/2/4 172/2/4 175/2/4
f 173/3/4 174/3/4 176/3/4
f 176/3/4 174/3/4 177/3/4
f 180/2/5 179/2/5 178/2/5
f 182/3/5 181/3/5 180/3/5
f 184/3/5 183/3/5 182/3/5
f 186/3/5 185/3/5 184/3/5
f 188/3/5 187/3/5 186/3/5
f 190/3/5 189/3/5 188/3/5
f 192/3/5 191/3/5 190/3/5
f 194/3/5 193/3/5 192/3/5
f 196/3/5 195/3/5 194/3/5
f 198/3/5 197/3/5 196/3/5
f 200/3/5 199/3/5 198/3/5
f 202/3/5 201/3/5 200/3/5
f 204/3/5 198/3/5 196/3/5
f 204/3/5 203/3/5 202/3/5
f 204/3/5 202/3/5 200/3/5
f 204/3/5 200/3/5 198/3/5
f 205/3/5 203/3/5 204/3/5
f 206/3/5 192/3/5 190/3/5
f 206/3/5 194/3/5 192/3/5
f 206/3/5 204/3/5 196/3/5
f 206/3/5 196/3/5 194/3/5
f 207/3/5 204/3/5 206/3/5
f 208/3/5 186/3/5 184/3/5
f 208/3/5 188/3/5 186/3/5
f 208/3/5 206/3/5 190/3/5
f 208/3/5 190/3/5 188/3/5
f 209/3/5 206/3/5 208/3/5
f 210/2/5 180/2/5 178/2/5
f 211/3/5 182/3/5 180/3/5
f 211/2/5 180/2/5 210/2/5
f 211/3/5 184/3/5 182/3/5
f 211/3/5 208/3/5 184/3/5
f 212/3/5 208/3/5 211/3/5
f 213/3/6 214/3/6 215/3/6
f 215/3/6 216/3/6 217/3/6
f 217/3/6 218/3/6 219/3/6
f 219/3/6 220/3/6 221/3/6
f 221/3/6 222/3/6 223/3/6
f 223/3/6 224/3/6 225/3/6
f 225/3/6 226/3/6 227/3/6
f 227/3/6 228/3/6 229/3/6
f 213/3/6 215/3/6 231/3/6
f 229/3/6 230/3/6 231/3/6
f 227/3/6 229/3/6 231/3/6
f 225/3/6 227/3/6 231/3/6
f 223/3/6 225/3/6 231/3/6
f 221/3/6 223/3/6 231/3/6
f 219/3/6 221/3/6 231/3/6
f 217/3/6 219/3/6 231/3/6
f 215/3/6 217/3/6 231/3/6
f 231/3/6 230/3/6 232/3/6
f 232/3/6 230/3/6 233/3/6
f 233/3/6 234/3/6 235/3/6
f 232/3/6 233/3/6 235/3/6
f 235/3/6 234/3/6 236/3/6
f 236/3/6 234/3/6 237/3/6
f 237/3/6 238/3/6 239/3/6
f 236/3/6 237/3/6 242/3/6
f 239/3/6 240/3/6 242/3/6
f 237/3/6 239/3/6 242/3/6
f 241/3/6 242/3/6 244/3/6
f 242/3/6 240/3/6 245/3/6
f 243/3/6 244/3/6 245/3/6
f 244/3/6 242/3/6 245/3/6
f 245/3/6 240/3/6 246/3/6
f 243/3/6 245/3/6 247/3/6
f 247/3/6 245/3/6 248/3/6
f 243/3/6 247/3/6 249/3/6
f 249/3/6 247/3/6 250/3/6
f 243/3/6 249/3/6 251/3/6
f 251/3/6 249/3/6 252/3/6
f 253/2/6 254/2/6 255/2/6
f 255/2/6 256/2/6 257/2/6
f 255/2/6 257/2/6 259/2/6
f 257/2/6 258/2/6 259/2/6
f 259/2/6 258/2/6 260/2/6
f 253/2/6 255/2/6 261/2/6
f 255/2/6 259/2/6 261/2/6
f 261/2/6 259/2/6 262/2/6
f 253/2/6 261/2/6 263/2/6
f 263/2/6 261/2/6 264/2/6
