# MagicaVoxel @ Ephtracy

# group
g fillingCabinetDraw

# material
mtllib fillingCabinetDraw.mtl
usemtl palette

# normals
vn -1 0 0
vn 1 0 0
vn 0 0 1
vn 0 0 -1
vn 0 -1 0
vn 0 1 0

# texcoords
vt 0.904297 0.5
vt 0.974609 0.5
vt 0.994141 0.5

# verts
v -16 0 18
v -16 0 -17
v -16 31 18
v -16 31 17
v -16 32 16
v -16 32 -17
v -16 33 16
v -16 33 -17
v -16 34 18
v -16 34 17
v -16 36 18
v -16 36 -17
v 14 32 16
v 14 32 -16
v 14 33 16
v 14 33 -16
v 15 3 16
v 15 3 -16
v 15 32 16
v 15 32 -16
v 15 33 16
v 15 33 -16
v 15 35 17
v 15 35 16
v 15 36 17
v 15 36 -16
v -15 3 16
v -15 3 -16
v -15 32 16
v -15 32 -16
v -15 33 16
v -15 33 -16
v -15 35 17
v -15 35 16
v -15 36 17
v -15 36 -16
v -14 32 16
v -14 32 -16
v -14 33 16
v -14 33 -16
v 16 0 18
v 16 0 -17
v 16 31 18
v 16 31 17
v 16 32 16
v 16 32 -17
v 16 33 16
v 16 33 -17
v 16 34 18
v 16 34 17
v 16 36 18
v 16 36 -17
v -16 0 18
v -16 31 18
v -16 34 18
v -16 36 18
v 16 0 18
v 16 31 18
v 16 34 18
v 16 36 18
v -16 31 17
v -16 34 17
v 16 31 17
v 16 34 17
v -15 3 -16
v -15 32 -16
v -15 33 -16
v -15 36 -16
v -14 32 -16
v -14 33 -16
v 14 32 -16
v 14 33 -16
v 15 3 -16
v 15 32 -16
v 15 33 -16
v 15 36 -16
v -15 35 17
v -15 36 17
v 15 35 17
v 15 36 17
v -15 3 16
v -15 32 16
v -15 33 16
v -15 35 16
v -14 32 16
v -14 33 16
v 14 32 16
v 14 33 16
v 15 3 16
v 15 32 16
v 15 33 16
v 15 35 16
v -16 0 -17
v -16 32 -17
v -16 33 -17
v -16 36 -17
v -15 32 -17
v -15 33 -17
v 15 32 -17
v 15 33 -17
v 16 0 -17
v 16 32 -17
v 16 33 -17
v 16 36 -17
v -16 0 18
v 16 0 18
v -16 0 -17
v 16 0 -17
v -15 32 16
v -14 32 16
v 14 32 16
v 15 32 16
v -15 32 -16
v -14 32 -16
v 14 32 -16
v 15 32 -16
v -16 34 18
v 16 34 18
v -16 34 17
v 16 34 17
v -15 3 16
v 15 3 16
v -15 3 -16
v 15 3 -16
v -16 31 18
v 16 31 18
v -16 31 17
v 16 31 17
v -15 33 16
v -14 33 16
v 14 33 16
v 15 33 16
v -15 33 -16
v -14 33 -16
v 14 33 -16
v 15 33 -16
v -15 35 17
v 15 35 17
v -15 35 16
v 15 35 16
v -16 36 18
v 16 36 18
v -15 36 17
v 15 36 17
v -15 36 -16
v 15 36 -16
v -16 36 -17
v 16 36 -17

# faces
f 3/2/1 2/2/1 1/2/1
f 4/2/1 2/2/1 3/2/1
f 5/2/1 2/2/1 4/2/1
f 6/2/1 2/2/1 5/2/1
f 7/2/1 5/2/1 4/2/1
f 7/3/1 6/3/1 5/3/1
f 8/3/1 6/3/1 7/3/1
f 10/2/1 7/2/1 4/2/1
f 10/2/1 8/2/1 7/2/1
f 11/2/1 10/2/1 9/2/1
f 12/2/1 8/2/1 10/2/1
f 12/2/1 10/2/1 11/2/1
f 15/3/1 14/3/1 13/3/1
f 16/3/1 14/3/1 15/3/1
f 19/2/1 18/2/1 17/2/1
f 20/2/1 18/2/1 19/2/1
f 24/2/1 22/2/1 21/2/1
f 25/2/1 24/2/1 23/2/1
f 26/2/1 22/2/1 24/2/1
f 26/2/1 24/2/1 25/2/1
f 27/2/2 28/2/2 29/2/2
f 29/2/2 28/2/2 30/2/2
f 31/2/2 32/2/2 34/2/2
f 33/2/2 34/2/2 35/2/2
f 34/2/2 32/2/2 36/2/2
f 35/2/2 34/2/2 36/2/2
f 37/3/2 38/3/2 39/3/2
f 39/3/2 38/3/2 40/3/2
f 41/2/2 42/2/2 43/2/2
f 43/2/2 42/2/2 44/2/2
f 44/2/2 42/2/2 45/2/2
f 45/2/2 42/2/2 46/2/2
f 44/2/2 45/2/2 47/2/2
f 45/3/2 46/3/2 47/3/2
f 47/3/2 46/3/2 48/3/2
f 44/2/2 47/2/2 50/2/2
f 47/2/2 48/2/2 50/2/2
f 49/2/2 50/2/2 51/2/2
f 50/2/2 48/2/2 52/2/2
f 51/2/2 50/2/2 52/2/2
f 57/2/3 54/2/3 53/2/3
f 58/2/3 54/2/3 57/2/3
f 59/2/3 56/2/3 55/2/3
f 60/2/3 56/2/3 59/2/3
f 63/2/3 62/2/3 61/2/3
f 64/2/3 62/2/3 63/2/3
f 69/2/3 66/2/3 65/2/3
f 70/2/3 68/2/3 67/2/3
f 71/2/3 69/2/3 65/2/3
f 71/2/3 70/2/3 69/2/3
f 72/2/3 68/2/3 70/2/3
f 72/2/3 70/2/3 71/2/3
f 73/2/3 71/2/3 65/2/3
f 74/2/3 71/2/3 73/2/3
f 75/2/3 68/2/3 72/2/3
f 76/2/3 68/2/3 75/2/3
f 77/2/4 78/2/4 79/2/4
f 79/2/4 78/2/4 80/2/4
f 81/2/4 82/2/4 85/2/4
f 83/2/4 84/2/4 86/2/4
f 81/2/4 85/2/4 87/2/4
f 85/2/4 86/2/4 87/2/4
f 86/2/4 84/2/4 88/2/4
f 87/2/4 86/2/4 88/2/4
f 81/2/4 87/2/4 89/2/4
f 89/2/4 87/2/4 90/2/4
f 88/2/4 84/2/4 91/2/4
f 91/2/4 84/2/4 92/2/4
f 93/2/4 94/2/4 97/2/4
f 94/3/4 95/3/4 97/3/4
f 95/2/4 96/2/4 98/2/4
f 97/3/4 95/3/4 98/3/4
f 93/2/4 97/2/4 99/2/4
f 97/2/4 98/2/4 99/2/4
f 98/2/4 96/2/4 100/2/4
f 99/2/4 98/2/4 100/2/4
f 93/2/4 99/2/4 101/2/4
f 99/3/4 100/3/4 102/3/4
f 101/2/4 99/2/4 102/2/4
f 100/2/4 96/2/4 103/2/4
f 102/3/4 100/3/4 103/3/4
f 103/2/4 96/2/4 104/2/4
f 107/2/5 106/2/5 105/2/5
f 108/2/5 106/2/5 107/2/5
f 113/3/5 110/3/5 109/3/5
f 114/3/5 110/3/5 113/3/5
f 115/3/5 112/3/5 111/3/5
f 116/3/5 112/3/5 115/3/5
f 119/2/5 118/2/5 117/2/5
f 120/2/5 118/2/5 119/2/5
f 121/2/6 122/2/6 123/2/6
f 123/2/6 122/2/6 124/2/6
f 125/2/6 126/2/6 127/2/6
f 127/2/6 126/2/6 128/2/6
f 129/3/6 130/3/6 133/3/6
f 133/3/6 130/3/6 134/3/6
f 131/3/6 132/3/6 135/3/6
f 135/3/6 132/3/6 136/3/6
f 137/2/6 138/2/6 139/2/6
f 139/2/6 138/2/6 140/2/6
f 141/2/6 142/2/6 143/2/6
f 143/2/6 142/2/6 144/2/6
f 141/2/6 143/2/6 145/2/6
f 144/2/6 142/2/6 146/2/6
f 141/2/6 145/2/6 147/2/6
f 145/2/6 146/2/6 147/2/6
f 146/2/6 142/2/6 148/2/6
f 147/2/6 146/2/6 148/2/6
