# MagicaVoxel @ Ephtracy

# group
g fillingCabinet

# material
mtllib fillingCabinet.mtl
usemtl palette

# normals
vn -1 0 0
vn 1 0 0
vn 0 0 1
vn 0 0 -1
vn 0 -1 0
vn 0 1 0

# texcoords
vt 0.904297 0.5
vt 0.966797 0.5
vt 0.974609 0.5
vt 0.978516 0.5

# verts
v -20 0 20
v -20 0 -20
v -20 76 20
v -20 76 -20
v -20 77 20
v -20 77 -20
v -20 80 20
v -20 80 -20
v 16 35 20
v 16 35 19
v 16 38 20
v 16 38 19
v 16 71 20
v 16 71 19
v 16 74 20
v 16 74 19
v -16 35 20
v -16 35 19
v -16 38 20
v -16 38 19
v -16 71 20
v -16 71 19
v -16 74 20
v -16 74 19
v 20 0 20
v 20 0 -20
v 20 76 20
v 20 76 -20
v 20 77 20
v 20 77 -20
v 20 80 20
v 20 80 -20
v -20 0 20
v -20 76 20
v -20 77 20
v -20 80 20
v -17 0 20
v -17 76 20
v -16 0 20
v -16 3 20
v -16 4 20
v -16 35 20
v -16 38 20
v -16 40 20
v -16 41 20
v -16 44 20
v -16 45 20
v -16 71 20
v -16 74 20
v -16 76 20
v 15 78 20
v 15 79 20
v 16 0 20
v 16 3 20
v 16 4 20
v 16 35 20
v 16 38 20
v 16 40 20
v 16 41 20
v 16 44 20
v 16 45 20
v 16 71 20
v 16 74 20
v 16 76 20
v 16 78 20
v 16 79 20
v 17 0 20
v 17 76 20
v 20 0 20
v 20 76 20
v 20 77 20
v 20 80 20
v -16 35 19
v -16 38 19
v -16 71 19
v -16 74 19
v 16 35 19
v 16 38 19
v 16 71 19
v 16 74 19
v -20 0 -20
v -20 76 -20
v -20 77 -20
v -20 80 -20
v 20 0 -20
v 20 76 -20
v 20 77 -20
v 20 80 -20
v -20 0 20
v -17 0 20
v -16 0 20
v 16 0 20
v 17 0 20
v 20 0 20
v -17 0 19
v -16 0 19
v 16 0 19
v 17 0 19
v -20 0 -20
v 20 0 -20
v -16 38 20
v 16 38 20
v -16 38 19
v 16 38 19
v -16 74 20
v 16 74 20
v -16 74 19
v 16 74 19
v -16 35 20
v 16 35 20
v -16 35 19
v 16 35 19
v -16 71 20
v 16 71 20
v -16 71 19
v 16 71 19
v -20 80 20
v 20 80 20
v -20 80 -20
v 20 80 -20

# faces
f 3/3/1 2/3/1 1/3/1
f 4/3/1 2/3/1 3/3/1
f 5/4/1 4/4/1 3/4/1
f 6/4/1 4/4/1 5/4/1
f 7/3/1 6/3/1 5/3/1
f 8/3/1 6/3/1 7/3/1
f 11/4/1 10/4/1 9/4/1
f 12/4/1 10/4/1 11/4/1
f 15/4/1 14/4/1 13/4/1
f 16/4/1 14/4/1 15/4/1
f 17/4/2 18/4/2 19/4/2
f 19/4/2 18/4/2 20/4/2
f 21/4/2 22/4/2 23/4/2
f 23/4/2 22/4/2 24/4/2
f 25/3/2 26/3/2 27/3/2
f 27/3/2 26/3/2 28/3/2
f 27/4/2 28/4/2 29/4/2
f 29/4/2 28/4/2 30/4/2
f 29/3/2 30/3/2 31/3/2
f 31/3/2 30/3/2 32/3/2
f 37/3/3 34/3/3 33/3/3
f 38/4/3 35/4/3 34/4/3
f 38/3/3 34/3/3 37/3/3
f 39/4/3 38/4/3 37/4/3
f 40/4/3 38/4/3 39/4/3
f 41/4/3 38/4/3 40/4/3
f 42/4/3 38/4/3 41/4/3
f 43/4/3 38/4/3 42/4/3
f 44/4/3 38/4/3 43/4/3
f 45/4/3 38/4/3 44/4/3
f 46/4/3 38/4/3 45/4/3
f 47/4/3 38/4/3 46/4/3
f 48/4/3 38/4/3 47/4/3
f 49/4/3 38/4/3 48/4/3
f 50/4/3 35/4/3 38/4/3
f 50/4/3 38/4/3 49/4/3
f 51/3/3 36/3/3 35/3/3
f 52/3/3 36/3/3 51/3/3
f 53/3/3 40/3/3 39/3/3
f 54/4/3 41/4/3 40/4/3
f 54/3/3 40/3/3 53/3/3
f 55/3/3 42/3/3 41/3/3
f 55/4/3 41/4/3 54/4/3
f 56/3/3 42/3/3 55/3/3
f 57/3/3 44/3/3 43/3/3
f 58/4/3 45/4/3 44/4/3
f 58/3/3 44/3/3 57/3/3
f 59/3/3 46/3/3 45/3/3
f 59/4/3 45/4/3 58/4/3
f 60/4/3 47/4/3 46/4/3
f 60/3/3 46/3/3 59/3/3
f 61/3/3 48/3/3 47/3/3
f 61/4/3 47/4/3 60/4/3
f 62/3/3 48/3/3 61/3/3
f 63/3/3 50/3/3 49/3/3
f 64/4/3 35/4/3 50/4/3
f 64/3/3 50/3/3 63/3/3
f 65/3/3 51/3/3 35/3/3
f 65/2/3 52/2/3 51/2/3
f 66/3/3 36/3/3 52/3/3
f 66/2/3 52/2/3 65/2/3
f 67/4/3 63/4/3 62/4/3
f 67/4/3 62/4/3 61/4/3
f 67/4/3 54/4/3 53/4/3
f 67/4/3 60/4/3 59/4/3
f 67/4/3 61/4/3 60/4/3
f 67/4/3 56/4/3 55/4/3
f 67/4/3 55/4/3 54/4/3
f 67/4/3 64/4/3 63/4/3
f 67/4/3 57/4/3 56/4/3
f 67/4/3 59/4/3 58/4/3
f 67/4/3 58/4/3 57/4/3
f 68/4/3 35/4/3 64/4/3
f 68/4/3 64/4/3 67/4/3
f 69/3/3 68/3/3 67/3/3
f 70/4/3 35/4/3 68/4/3
f 70/3/3 68/3/3 69/3/3
f 71/3/3 66/3/3 65/3/3
f 71/4/3 35/4/3 70/4/3
f 71/3/3 65/3/3 35/3/3
f 72/3/3 36/3/3 66/3/3
f 72/3/3 66/3/3 71/3/3
f 77/3/3 74/3/3 73/3/3
f 78/3/3 74/3/3 77/3/3
f 79/3/3 76/3/3 75/3/3
f 80/3/3 76/3/3 79/3/3
f 81/3/4 82/3/4 85/3/4
f 82/4/4 83/4/4 86/4/4
f 85/3/4 82/3/4 86/3/4
f 83/3/4 84/3/4 87/3/4
f 86/4/4 83/4/4 87/4/4
f 87/3/4 84/3/4 88/3/4
f 95/3/5 90/3/5 89/3/5
f 95/4/5 91/4/5 90/4/5
f 96/3/5 92/3/5 91/3/5
f 96/4/5 91/4/5 95/4/5
f 97/4/5 93/4/5 92/4/5
f 97/3/5 92/3/5 96/3/5
f 98/3/5 94/3/5 93/3/5
f 98/4/5 93/4/5 97/4/5
f 99/3/5 97/3/5 96/3/5
f 99/3/5 96/3/5 95/3/5
f 99/3/5 98/3/5 97/3/5
f 99/3/5 95/3/5 89/3/5
f 100/3/5 94/3/5 98/3/5
f 100/3/5 98/3/5 99/3/5
f 103/3/5 102/3/5 101/3/5
f 104/3/5 102/3/5 103/3/5
f 107/3/5 106/3/5 105/3/5
f 108/3/5 106/3/5 107/3/5
f 109/3/6 110/3/6 111/3/6
f 111/3/6 110/3/6 112/3/6
f 113/3/6 114/3/6 115/3/6
f 115/3/6 114/3/6 116/3/6
f 117/3/6 118/3/6 119/3/6
f 119/3/6 118/3/6 120/3/6
