# MagicaVoxel @ Ephtracy

# group
g keyboard

# material
mtllib keyboard.mtl
usemtl palette

# normals
vn -1 0 0
vn 1 0 0
vn 0 0 1
vn 0 0 -1
vn 0 -1 0
vn 0 1 0

# texcoords
vt 0.970703 0.5
vt 0.974609 0.5
vt 0.986328 0.5
vt 0.994141 0.5

# verts
v -31 0 8
v -31 0 -8
v -31 2 8
v -31 2 -8
v -30 2 7
v -30 2 6
v -30 2 5
v -30 2 4
v -30 2 3
v -30 2 1
v -30 2 -0
v -30 2 -3
v -30 2 -5
v -30 2 -7
v -30 3 7
v -30 3 6
v -30 3 5
v -30 3 4
v -30 3 3
v -30 3 1
v -30 3 -0
v -30 3 -3
v -30 3 -5
v -30 3 -7
v 24 0 1
v 24 0 -5
v 24 3 1
v 24 3 -0
v 24 3 -5
v 24 4 -0
v 24 4 -5
v 25 0 5
v 25 0 1
v 25 0 -5
v 25 0 -6
v 25 3 5
v 25 3 1
v 25 3 -5
v 25 3 -6
v 25 4 -5
v 25 4 -6
v 26 0 6
v 26 0 5
v 26 3 6
v 26 3 5
v 26 3 2
v 26 3 -0
v 26 4 2
v 26 4 -0
v 26 4 -3
v 26 5 -0
v 26 5 -3
v 27 3 4
v 27 3 2
v 27 4 4
v 27 4 2
v 27 4 1
v 27 4 -0
v 27 4 -3
v 27 4 -5
v 27 5 1
v 27 5 -0
v 27 5 -3
v 27 5 -5
v 8 2 7
v 8 2 4
v 8 2 3
v 8 2 2
v 8 2 1
v 8 2 -3
v 8 2 -4
v 8 2 -5
v 8 2 -6
v 8 2 -7
v 8 3 7
v 8 3 4
v 8 3 3
v 8 3 2
v 8 3 1
v 8 3 -3
v 8 3 -4
v 8 3 -5
v 8 3 -6
v 8 3 -7
v 9 0 8
v 9 0 -8
v 9 2 8
v 9 2 -8
v 28 3 4
v 28 3 2
v 28 4 4
v 28 4 2
v 28 4 1
v 28 4 -0
v 28 4 -3
v 28 4 -5
v 28 5 1
v 28 5 -0
v 28 5 -3
v 28 5 -5
v 29 0 6
v 29 0 5
v 29 3 6
v 29 3 5
v 29 3 2
v 29 3 -0
v 29 4 2
v 29 4 -0
v 29 4 -3
v 29 5 -0
v 29 5 -3
v 30 0 5
v 30 0 1
v 30 0 -5
v 30 0 -6
v 30 3 5
v 30 3 1
v 30 3 -5
v 30 3 -6
v 30 4 -5
v 30 4 -6
v 31 0 1
v 31 0 -5
v 31 3 1
v 31 3 -0
v 31 3 -5
v 31 4 -0
v 31 4 -5
v -31 0 8
v -31 2 8
v 9 0 8
v 9 2 8
v -30 2 7
v -30 3 7
v -28 2 7
v -28 3 7
v -27 2 7
v -27 3 7
v -23 2 7
v -23 3 7
v -22 2 7
v -22 3 7
v -20 2 7
v -20 3 7
v -19 2 7
v -19 3 7
v -9 2 7
v -9 3 7
v 7 2 7
v 7 3 7
v 8 2 7
v 8 3 7
v 26 0 6
v 26 3 6
v 29 0 6
v 29 3 6
v 25 0 5
v 25 3 5
v 26 0 5
v 26 3 5
v 29 0 5
v 29 3 5
v 30 0 5
v 30 3 5
v 27 3 4
v 27 4 4
v 28 3 4
v 28 4 4
v 26 3 2
v 26 4 2
v 27 3 2
v 27 4 2
v 28 3 2
v 28 4 2
v 29 3 2
v 29 4 2
v 24 0 1
v 24 3 1
v 25 0 1
v 25 3 1
v 27 4 1
v 27 5 1
v 28 4 1
v 28 5 1
v 30 0 1
v 30 3 1
v 31 0 1
v 31 3 1
v 24 3 -0
v 24 4 -0
v 26 3 -0
v 26 4 -0
v 26 5 -0
v 27 4 -0
v 27 5 -0
v 28 4 -0
v 28 5 -0
v 29 3 -0
v 29 4 -0
v 29 5 -0
v 31 3 -0
v 31 4 -0
v 26 4 -3
v 26 5 -3
v 27 4 -3
v 27 5 -3
v 28 4 -3
v 28 5 -3
v 29 4 -3
v 29 5 -3
v 24 0 -5
v 24 3 -5
v 24 4 -5
v 25 0 -5
v 25 3 -5
v 25 4 -5
v 27 4 -5
v 27 5 -5
v 28 4 -5
v 28 5 -5
v 30 0 -5
v 30 3 -5
v 30 4 -5
v 31 0 -5
v 31 3 -5
v 31 4 -5
v 25 0 -6
v 25 3 -6
v 25 4 -6
v 27 3 -6
v 27 4 -6
v 28 3 -6
v 28 4 -6
v 30 0 -6
v 30 3 -6
v 30 4 -6
v -30 2 -7
v -30 3 -7
v -27 2 -7
v -27 3 -7
v -20 2 -7
v -20 3 -7
v -18 2 -7
v -18 3 -7
v -15 2 -7
v -15 3 -7
v -13 2 -7
v -13 3 -7
v -1 2 -7
v -1 3 -7
v 0 2 -7
v 0 3 -7
v 1 2 -7
v 1 3 -7
v 2 2 -7
v 2 3 -7
v 3 2 -7
v 3 3 -7
v 4 2 -7
v 4 3 -7
v 5 2 -7
v 5 3 -7
v 6 2 -7
v 6 3 -7
v 7 2 -7
v 7 3 -7
v 8 2 -7
v 8 3 -7
v -31 0 -8
v -31 2 -8
v 9 0 -8
v 9 2 -8
v -31 0 8
v 9 0 8
v -30 0 7
v 8 0 7
v 26 0 6
v 29 0 6
v 25 0 5
v 26 0 5
v 29 0 5
v 30 0 5
v 24 0 1
v 25 0 1
v 30 0 1
v 31 0 1
v 24 0 -5
v 25 0 -5
v 30 0 -5
v 31 0 -5
v 25 0 -6
v 30 0 -6
v -30 0 -7
v 8 0 -7
v -31 0 -8
v 9 0 -8
v -31 2 8
v 9 2 8
v -30 2 7
v -28 2 7
v -27 2 7
v -23 2 7
v -22 2 7
v -20 2 7
v -19 2 7
v -9 2 7
v 7 2 7
v 8 2 7
v -30 2 6
v -30 2 5
v -30 2 4
v 8 2 4
v -30 2 3
v 8 2 3
v 8 2 2
v -30 2 1
v 8 2 1
v -30 2 -0
v -30 2 -3
v 8 2 -3
v 8 2 -4
v -30 2 -5
v 8 2 -5
v 8 2 -6
v -30 2 -7
v -27 2 -7
v -20 2 -7
v -18 2 -7
v -15 2 -7
v -13 2 -7
v -1 2 -7
v 0 2 -7
v 1 2 -7
v 2 2 -7
v 3 2 -7
v 4 2 -7
v 5 2 -7
v 6 2 -7
v 7 2 -7
v 8 2 -7
v -31 2 -8
v 9 2 -8
v -30 3 7
v -28 3 7
v -27 3 7
v -23 3 7
v -22 3 7
v -20 3 7
v -19 3 7
v -9 3 7
v 7 3 7
v 8 3 7
v -30 3 6
v -28 3 6
v -27 3 6
v -23 3 6
v -22 3 6
v -20 3 6
v -18 3 6
v -11 3 6
v -8 3 6
v -7 3 6
v -6 3 6
v -5 3 6
v -4 3 6
v -3 3 6
v -2 3 6
v 0 3 6
v 1 3 6
v 3 3 6
v 4 3 6
v 6 3 6
v 26 3 6
v 29 3 6
v -30 3 5
v -25 3 5
v -20 3 5
v -19 3 5
v -18 3 5
v -15 3 5
v -8 3 5
v -7 3 5
v -6 3 5
v -5 3 5
v -4 3 5
v -3 3 5
v 25 3 5
v 26 3 5
v 29 3 5
v 30 3 5
v -30 3 4
v -25 3 4
v -23 3 4
v -21 3 4
v -20 3 4
v -18 3 4
v -13 3 4
v -11 3 4
v -9 3 4
v -6 3 4
v -5 3 4
v -2 3 4
v 0 3 4
v 1 3 4
v 3 3 4
v 4 3 4
v 6 3 4
v 7 3 4
v 8 3 4
v 27 3 4
v 28 3 4
v -30 3 3
v -26 3 3
v -6 3 3
v -5 3 3
v -2 3 3
v 0 3 3
v 1 3 3
v 3 3 3
v 4 3 3
v 6 3 3
v 7 3 3
v 8 3 3
v -23 3 2
v -21 3 2
v -20 3 2
v -18 3 2
v -16 3 2
v -15 3 2
v -14 3 2
v -13 3 2
v -11 3 2
v 7 3 2
v 8 3 2
v 26 3 2
v 27 3 2
v 28 3 2
v 29 3 2
v -30 3 1
v -26 3 1
v -24 3 1
v -21 3 1
v -12 3 1
v -9 3 1
v -2 3 1
v 0 3 1
v 1 3 1
v 3 3 1
v 4 3 1
v 6 3 1
v 7 3 1
v 8 3 1
v 24 3 1
v 25 3 1
v 30 3 1
v 31 3 1
v -30 3 -0
v -26 3 -0
v -20 3 -0
v -18 3 -0
v -2 3 -0
v 0 3 -0
v 1 3 -0
v 3 3 -0
v 4 3 -0
v 6 3 -0
v 24 3 -0
v 26 3 -0
v 29 3 -0
v 31 3 -0
v -16 3 -1
v -14 3 -1
v -8 3 -1
v -7 3 -1
v -6 3 -1
v -5 3 -1
v -4 3 -1
v -3 3 -1
v -22 3 -2
v -21 3 -2
v -20 3 -2
v -18 3 -2
v -12 3 -2
v -9 3 -2
v -8 3 -2
v -7 3 -2
v -6 3 -2
v -5 3 -2
v -4 3 -2
v -3 3 -2
v -2 3 -2
v 0 3 -2
v 1 3 -2
v 3 3 -2
v 4 3 -2
v 6 3 -2
v -30 3 -3
v -26 3 -3
v -18 3 -3
v -15 3 -3
v -13 3 -3
v -10 3 -3
v -8 3 -3
v -7 3 -3
v -6 3 -3
v -5 3 -3
v -4 3 -3
v -3 3 -3
v -2 3 -3
v 0 3 -3
v 1 3 -3
v 3 3 -3
v 4 3 -3
v 6 3 -3
v 7 3 -3
v 8 3 -3
v -26 3 -4
v -24 3 -4
v -23 3 -4
v -22 3 -4
v -20 3 -4
v -18 3 -4
v -15 3 -4
v -13 3 -4
v -8 3 -4
v -7 3 -4
v -6 3 -4
v -5 3 -4
v -4 3 -4
v -3 3 -4
v 7 3 -4
v 8 3 -4
v -30 3 -5
v -27 3 -5
v -20 3 -5
v -18 3 -5
v -15 3 -5
v -13 3 -5
v -10 3 -5
v -8 3 -5
v -7 3 -5
v -6 3 -5
v -5 3 -5
v -4 3 -5
v -3 3 -5
v -2 3 -5
v 0 3 -5
v 1 3 -5
v 3 3 -5
v 4 3 -5
v 6 3 -5
v 7 3 -5
v 8 3 -5
v -26 3 -6
v -23 3 -6
v -8 3 -6
v -7 3 -6
v -6 3 -6
v -5 3 -6
v -4 3 -6
v -3 3 -6
v -1 3 -6
v 0 3 -6
v 1 3 -6
v 2 3 -6
v 3 3 -6
v 4 3 -6
v 5 3 -6
v 6 3 -6
v 7 3 -6
v 8 3 -6
v -30 3 -7
v -27 3 -7
v -20 3 -7
v -18 3 -7
v -15 3 -7
v -13 3 -7
v -1 3 -7
v 0 3 -7
v 1 3 -7
v 2 3 -7
v 3 3 -7
v 4 3 -7
v 5 3 -7
v 6 3 -7
v 7 3 -7
v 8 3 -7
v 27 4 4
v 28 4 4
v 26 4 2
v 27 4 2
v 28 4 2
v 29 4 2
v 27 4 1
v 28 4 1
v 24 4 -0
v 26 4 -0
v 27 4 -0
v 28 4 -0
v 29 4 -0
v 31 4 -0
v 26 4 -3
v 27 4 -3
v 28 4 -3
v 29 4 -3
v 24 4 -5
v 25 4 -5
v 27 4 -5
v 28 4 -5
v 30 4 -5
v 31 4 -5
v 25 4 -6
v 27 4 -6
v 28 4 -6
v 30 4 -6
v 27 5 1
v 28 5 1
v 26 5 -0
v 27 5 -0
v 28 5 -0
v 29 5 -0
v 26 5 -3
v 27 5 -3
v 28 5 -3
v 29 5 -3
v 27 5 -5
v 28 5 -5

# faces
f 3/4/1 2/4/1 1/4/1
f 4/4/1 2/4/1 3/4/1
f 15/3/1 6/3/1 5/3/1
f 16/2/1 7/2/1 6/2/1
f 16/3/1 6/3/1 15/3/1
f 17/3/1 8/3/1 7/3/1
f 17/2/1 7/2/1 16/2/1
f 18/2/1 9/2/1 8/2/1
f 18/3/1 8/3/1 17/3/1
f 19/3/1 10/3/1 9/3/1
f 19/2/1 9/2/1 18/2/1
f 20/2/1 11/2/1 10/2/1
f 20/3/1 10/3/1 19/3/1
f 21/3/1 12/3/1 11/3/1
f 21/2/1 11/2/1 20/2/1
f 22/2/1 13/2/1 12/2/1
f 22/3/1 12/3/1 21/3/1
f 23/3/1 14/3/1 13/3/1
f 23/2/1 13/2/1 22/2/1
f 24/3/1 14/3/1 23/3/1
f 27/1/1 26/1/1 25/1/1
f 28/1/1 26/1/1 27/1/1
f 29/1/1 26/1/1 28/1/1
f 30/2/1 29/2/1 28/2/1
f 31/2/1 29/2/1 30/2/1
f 36/1/1 33/1/1 32/1/1
f 37/1/1 33/1/1 36/1/1
f 38/1/1 35/1/1 34/1/1
f 39/1/1 35/1/1 38/1/1
f 40/2/1 39/2/1 38/2/1
f 41/2/1 39/2/1 40/2/1
f 44/1/1 43/1/1 42/1/1
f 45/1/1 43/1/1 44/1/1
f 48/2/1 47/2/1 46/2/1
f 49/2/1 47/2/1 48/2/1
f 51/3/1 50/3/1 49/3/1
f 52/3/1 50/3/1 51/3/1
f 55/3/1 54/3/1 53/3/1
f 56/3/1 54/3/1 55/3/1
f 61/4/1 58/4/1 57/4/1
f 62/4/1 58/4/1 61/4/1
f 63/4/1 60/4/1 59/4/1
f 64/4/1 60/4/1 63/4/1
f 65/3/2 66/3/2 75/3/2
f 66/2/2 67/2/2 76/2/2
f 75/3/2 66/3/2 76/3/2
f 67/3/2 68/3/2 77/3/2
f 76/2/2 67/2/2 77/2/2
f 68/2/2 69/2/2 78/2/2
f 77/3/2 68/3/2 78/3/2
f 69/3/2 70/3/2 79/3/2
f 78/2/2 69/2/2 79/2/2
f 70/2/2 71/2/2 80/2/2
f 79/3/2 70/3/2 80/3/2
f 71/3/2 72/3/2 81/3/2
f 80/2/2 71/2/2 81/2/2
f 72/2/2 73/2/2 82/2/2
f 81/3/2 72/3/2 82/3/2
f 73/3/2 74/3/2 83/3/2
f 82/2/2 73/2/2 83/2/2
f 83/3/2 74/3/2 84/3/2
f 85/4/2 86/4/2 87/4/2
f 87/4/2 86/4/2 88/4/2
f 89/3/2 90/3/2 91/3/2
f 91/3/2 90/3/2 92/3/2
f 93/4/2 94/4/2 97/4/2
f 97/4/2 94/4/2 98/4/2
f 95/4/2 96/4/2 99/4/2
f 99/4/2 96/4/2 100/4/2
f 101/1/2 102/1/2 103/1/2
f 103/1/2 102/1/2 104/1/2
f 105/2/2 106/2/2 107/2/2
f 107/2/2 106/2/2 108/2/2
f 108/3/2 109/3/2 110/3/2
f 110/3/2 109/3/2 111/3/2
f 112/1/2 113/1/2 116/1/2
f 116/1/2 113/1/2 117/1/2
f 114/1/2 115/1/2 118/1/2
f 118/1/2 115/1/2 119/1/2
f 118/2/2 119/2/2 120/2/2
f 120/2/2 119/2/2 121/2/2
f 122/1/2 123/1/2 124/1/2
f 124/1/2 123/1/2 125/1/2
f 125/1/2 123/1/2 126/1/2
f 125/2/2 126/2/2 127/2/2
f 127/2/2 126/2/2 128/2/2
f 131/4/3 130/4/3 129/4/3
f 132/4/3 130/4/3 131/4/3
f 135/3/3 134/3/3 133/3/3
f 136/3/3 134/3/3 135/3/3
f 137/2/3 136/2/3 135/2/3
f 138/2/3 136/2/3 137/2/3
f 139/3/3 138/3/3 137/3/3
f 140/3/3 138/3/3 139/3/3
f 141/2/3 140/2/3 139/2/3
f 142/2/3 140/2/3 141/2/3
f 143/3/3 142/3/3 141/3/3
f 144/3/3 142/3/3 143/3/3
f 145/2/3 144/2/3 143/2/3
f 146/2/3 144/2/3 145/2/3
f 147/3/3 146/3/3 145/3/3
f 148/3/3 146/3/3 147/3/3
f 149/2/3 148/2/3 147/2/3
f 150/2/3 148/2/3 149/2/3
f 151/3/3 150/3/3 149/3/3
f 152/3/3 150/3/3 151/3/3
f 155/1/3 154/1/3 153/1/3
f 156/1/3 154/1/3 155/1/3
f 159/1/3 158/1/3 157/1/3
f 160/1/3 158/1/3 159/1/3
f 163/1/3 162/1/3 161/1/3
f 164/1/3 162/1/3 163/1/3
f 167/3/3 166/3/3 165/3/3
f 168/3/3 166/3/3 167/3/3
f 171/2/3 170/2/3 169/2/3
f 172/2/3 170/2/3 171/2/3
f 175/2/3 174/2/3 173/2/3
f 176/2/3 174/2/3 175/2/3
f 179/1/3 178/1/3 177/1/3
f 180/1/3 178/1/3 179/1/3
f 183/4/3 182/4/3 181/4/3
f 184/4/3 182/4/3 183/4/3
f 187/1/3 186/1/3 185/1/3
f 188/1/3 186/1/3 187/1/3
f 191/2/3 190/2/3 189/2/3
f 192/2/3 190/2/3 191/2/3
f 194/3/3 193/3/3 192/3/3
f 195/3/3 193/3/3 194/3/3
f 199/3/3 197/3/3 196/3/3
f 200/3/3 197/3/3 199/3/3
f 201/2/3 199/2/3 198/2/3
f 202/2/3 199/2/3 201/2/3
f 203/3/4 204/3/4 205/3/4
f 205/3/4 204/3/4 206/3/4
f 207/3/4 208/3/4 209/3/4
f 209/3/4 208/3/4 210/3/4
f 211/1/4 212/1/4 214/1/4
f 212/2/4 213/2/4 215/2/4
f 214/1/4 212/1/4 215/1/4
f 215/2/4 213/2/4 216/2/4
f 217/4/4 218/4/4 219/4/4
f 219/4/4 218/4/4 220/4/4
f 221/1/4 222/1/4 224/1/4
f 222/2/4 223/2/4 225/2/4
f 224/1/4 222/1/4 225/1/4
f 225/2/4 223/2/4 226/2/4
f 227/1/4 228/1/4 230/1/4
f 228/2/4 229/2/4 230/2/4
f 230/2/4 229/2/4 231/2/4
f 227/1/4 230/1/4 232/1/4
f 230/3/4 231/3/4 232/3/4
f 232/3/4 231/3/4 233/3/4
f 227/1/4 232/1/4 234/1/4
f 232/2/4 233/2/4 235/2/4
f 234/1/4 232/1/4 235/1/4
f 235/2/4 233/2/4 236/2/4
f 237/3/4 238/3/4 239/3/4
f 239/3/4 238/3/4 240/3/4
f 239/2/4 240/2/4 241/2/4
f 241/2/4 240/2/4 242/2/4
f 241/3/4 242/3/4 243/3/4
f 243/3/4 242/3/4 244/3/4
f 243/2/4 244/2/4 245/2/4
f 245/2/4 244/2/4 246/2/4
f 245/3/4 246/3/4 247/3/4
f 247/3/4 246/3/4 248/3/4
f 247/2/4 248/2/4 249/2/4
f 249/2/4 248/2/4 250/2/4
f 249/3/4 250/3/4 251/3/4
f 251/3/4 250/3/4 252/3/4
f 251/2/4 252/2/4 253/2/4
f 253/2/4 252/2/4 254/2/4
f 253/3/4 254/3/4 255/3/4
f 255/3/4 254/3/4 256/3/4
f 255/2/4 256/2/4 257/2/4
f 257/2/4 256/2/4 258/2/4
f 257/3/4 258/3/4 259/3/4
f 259/3/4 258/3/4 260/3/4
f 259/2/4 260/2/4 261/2/4
f 261/2/4 260/2/4 262/2/4
f 261/3/4 262/3/4 263/3/4
f 263/3/4 262/3/4 264/3/4
f 263/2/4 264/2/4 265/2/4
f 265/2/4 264/2/4 266/2/4
f 265/3/4 266/3/4 267/3/4
f 267/3/4 266/3/4 268/3/4
f 269/4/4 270/4/4 271/4/4
f 271/4/4 270/4/4 272/4/4
f 275/4/5 274/4/5 273/4/5
f 276/4/5 274/4/5 275/4/5
f 280/1/5 278/1/5 277/1/5
f 281/1/5 278/1/5 280/1/5
f 284/1/5 280/1/5 279/1/5
f 284/1/5 282/1/5 281/1/5
f 284/1/5 281/1/5 280/1/5
f 285/1/5 282/1/5 284/1/5
f 287/1/5 284/1/5 283/1/5
f 287/1/5 286/1/5 285/1/5
f 287/1/5 285/1/5 284/1/5
f 288/1/5 286/1/5 287/1/5
f 289/1/5 286/1/5 288/1/5
f 290/1/5 286/1/5 289/1/5
f 291/1/5 289/1/5 288/1/5
f 292/1/5 289/1/5 291/1/5
f 293/4/5 275/4/5 273/4/5
f 293/2/5 276/2/5 275/2/5
f 294/4/5 274/4/5 276/4/5
f 294/2/5 276/2/5 293/2/5
f 295/4/5 293/4/5 273/4/5
f 295/4/5 294/4/5 293/4/5
f 296/4/5 274/4/5 294/4/5
f 296/4/5 294/4/5 295/4/5
f 297/4/6 298/4/6 299/4/6
f 299/4/6 298/4/6 300/4/6
f 300/4/6 298/4/6 301/4/6
f 301/4/6 298/4/6 302/4/6
f 302/4/6 298/4/6 303/4/6
f 303/4/6 298/4/6 304/4/6
f 304/4/6 298/4/6 305/4/6
f 305/4/6 298/4/6 306/4/6
f 306/4/6 298/4/6 307/4/6
f 307/4/6 298/4/6 308/4/6
f 297/4/6 299/4/6 309/4/6
f 297/4/6 309/4/6 310/4/6
f 297/4/6 310/4/6 311/4/6
f 308/4/6 298/4/6 312/4/6
f 297/4/6 311/4/6 313/4/6
f 312/4/6 298/4/6 314/4/6
f 314/4/6 298/4/6 315/4/6
f 297/4/6 313/4/6 316/4/6
f 315/4/6 298/4/6 317/4/6
f 297/4/6 316/4/6 318/4/6
f 297/4/6 318/4/6 319/4/6
f 317/4/6 298/4/6 320/4/6
f 320/4/6 298/4/6 321/4/6
f 297/4/6 319/4/6 322/4/6
f 321/4/6 298/4/6 323/4/6
f 323/4/6 298/4/6 324/4/6
f 297/4/6 322/4/6 325/4/6
f 324/4/6 298/4/6 340/4/6
f 338/4/6 339/4/6 341/4/6
f 339/4/6 340/4/6 341/4/6
f 297/4/6 325/4/6 341/4/6
f 325/4/6 326/4/6 341/4/6
f 337/4/6 338/4/6 341/4/6
f 336/4/6 337/4/6 341/4/6
f 335/4/6 336/4/6 341/4/6
f 334/4/6 335/4/6 341/4/6
f 333/4/6 334/4/6 341/4/6
f 332/4/6 333/4/6 341/4/6
f 331/4/6 332/4/6 341/4/6
f 330/4/6 331/4/6 341/4/6
f 329/4/6 330/4/6 341/4/6
f 328/4/6 329/4/6 341/4/6
f 327/4/6 328/4/6 341/4/6
f 326/4/6 327/4/6 341/4/6
f 340/4/6 298/4/6 342/4/6
f 341/4/6 340/4/6 342/4/6
f 343/3/6 344/3/6 353/3/6
f 344/2/6 345/2/6 354/2/6
f 353/3/6 344/3/6 354/3/6
f 345/3/6 346/3/6 355/3/6
f 354/2/6 345/2/6 355/2/6
f 346/2/6 347/2/6 356/2/6
f 355/3/6 346/3/6 356/3/6
f 347/3/6 348/3/6 357/3/6
f 356/2/6 347/2/6 357/2/6
f 348/2/6 349/2/6 358/2/6
f 357/3/6 348/3/6 358/3/6
f 349/3/6 350/3/6 359/3/6
f 359/3/6 350/3/6 360/3/6
f 350/2/6 351/2/6 361/2/6
f 361/2/6 351/2/6 362/2/6
f 362/2/6 351/2/6 363/2/6
f 363/2/6 351/2/6 364/2/6
f 364/2/6 351/2/6 365/2/6
f 365/2/6 351/2/6 366/2/6
f 366/2/6 351/2/6 367/2/6
f 367/2/6 351/2/6 368/2/6
f 368/2/6 351/2/6 369/2/6
f 369/2/6 351/2/6 370/2/6
f 370/2/6 351/2/6 371/2/6
f 371/2/6 351/2/6 372/2/6
f 353/2/6 354/2/6 375/2/6
f 354/2/6 355/2/6 375/2/6
f 355/2/6 356/2/6 375/2/6
f 356/2/6 357/2/6 375/2/6
f 357/2/6 358/2/6 375/2/6
f 375/2/6 358/2/6 376/2/6
f 358/2/6 349/2/6 377/2/6
f 376/2/6 358/2/6 377/2/6
f 349/3/6 359/3/6 378/3/6
f 377/2/6 349/2/6 378/2/6
f 359/2/6 360/2/6 379/2/6
f 378/3/6 359/3/6 379/3/6
f 379/2/6 360/2/6 380/2/6
f 350/2/6 361/2/6 381/2/6
f 361/3/6 362/3/6 381/3/6
f 362/2/6 363/2/6 382/2/6
f 381/3/6 362/3/6 382/3/6
f 363/3/6 364/3/6 383/3/6
f 382/2/6 363/2/6 383/2/6
f 364/2/6 365/2/6 384/2/6
f 383/3/6 364/3/6 384/3/6
f 365/3/6 366/3/6 385/3/6
f 384/2/6 365/2/6 385/2/6
f 366/2/6 367/2/6 386/2/6
f 385/3/6 366/3/6 386/3/6
f 373/1/6 374/1/6 388/1/6
f 388/1/6 374/1/6 389/1/6
f 375/3/6 376/3/6 391/3/6
f 376/2/6 377/2/6 392/2/6
f 391/3/6 376/3/6 392/3/6
f 392/2/6 377/2/6 393/2/6
f 393/2/6 377/2/6 394/2/6
f 377/3/6 378/3/6 395/3/6
f 394/2/6 377/2/6 395/2/6
f 379/3/6 380/3/6 395/3/6
f 378/3/6 379/3/6 395/3/6
f 395/3/6 380/3/6 396/3/6
f 380/2/6 360/2/6 397/2/6
f 360/3/6 350/3/6 398/3/6
f 397/2/6 360/2/6 398/2/6
f 350/2/6 381/2/6 399/2/6
f 398/3/6 350/3/6 399/3/6
f 381/2/6 382/2/6 399/2/6
f 382/2/6 383/2/6 399/2/6
f 383/2/6 384/2/6 399/2/6
f 384/2/6 385/2/6 399/2/6
f 385/2/6 386/2/6 399/2/6
f 399/2/6 386/2/6 400/2/6
f 400/2/6 386/2/6 401/2/6
f 386/2/6 367/2/6 402/2/6
f 401/2/6 386/2/6 402/2/6
f 367/3/6 368/3/6 402/3/6
f 368/2/6 369/2/6 403/2/6
f 402/3/6 368/3/6 403/3/6
f 369/3/6 370/3/6 404/3/6
f 403/2/6 369/2/6 404/2/6
f 370/2/6 371/2/6 405/2/6
f 404/3/6 370/3/6 405/3/6
f 371/3/6 372/3/6 406/3/6
f 405/2/6 371/2/6 406/2/6
f 372/2/6 351/2/6 407/2/6
f 406/3/6 372/3/6 407/3/6
f 351/3/6 352/3/6 408/3/6
f 407/2/6 351/2/6 408/2/6
f 408/3/6 352/3/6 409/3/6
f 389/1/6 390/1/6 410/1/6
f 388/1/6 389/1/6 410/1/6
f 387/1/6 388/1/6 410/1/6
f 410/1/6 390/1/6 411/1/6
f 392/2/6 393/2/6 412/2/6
f 391/2/6 392/2/6 412/2/6
f 412/2/6 393/2/6 413/2/6
f 400/3/6 401/3/6 414/3/6
f 398/2/6 399/2/6 414/2/6
f 399/2/6 400/2/6 414/2/6
f 406/2/6 407/2/6 415/2/6
f 414/3/6 401/3/6 415/3/6
f 405/2/6 406/2/6 415/2/6
f 404/2/6 405/2/6 415/2/6
f 403/2/6 404/2/6 415/2/6
f 408/2/6 409/2/6 415/2/6
f 401/2/6 402/2/6 415/2/6
f 402/2/6 403/2/6 415/2/6
f 407/2/6 408/2/6 415/2/6
f 415/2/6 409/2/6 416/2/6
f 416/2/6 409/2/6 417/2/6
f 417/2/6 409/2/6 418/2/6
f 418/2/6 409/2/6 419/2/6
f 419/2/6 409/2/6 420/2/6
f 420/2/6 409/2/6 421/2/6
f 421/2/6 409/2/6 422/2/6
f 422/2/6 409/2/6 423/2/6
f 413/2/6 393/2/6 424/2/6
f 393/3/6 394/3/6 424/3/6
f 395/2/6 396/2/6 425/2/6
f 424/3/6 394/3/6 425/3/6
f 394/2/6 395/2/6 425/2/6
f 425/2/6 396/2/6 426/2/6
f 396/3/6 380/3/6 427/3/6
f 426/2/6 396/2/6 427/2/6
f 427/3/6 380/3/6 428/3/6
f 380/2/6 397/2/6 429/2/6
f 428/3/6 380/3/6 429/3/6
f 429/2/6 397/2/6 430/2/6
f 397/3/6 398/3/6 431/3/6
f 430/2/6 397/2/6 431/2/6
f 398/2/6 414/2/6 432/2/6
f 431/3/6 398/3/6 432/3/6
f 414/2/6 415/2/6 432/2/6
f 415/2/6 416/2/6 432/2/6
f 422/3/6 423/3/6 433/3/6
f 421/2/6 422/2/6 433/2/6
f 433/3/6 423/3/6 434/3/6
f 387/1/6 410/1/6 435/1/6
f 435/1/6 410/1/6 436/1/6
f 411/1/6 390/1/6 437/1/6
f 437/1/6 390/1/6 438/1/6
f 412/3/6 413/3/6 439/3/6
f 425/2/6 426/2/6 440/2/6
f 439/3/6 413/3/6 440/3/6
f 413/2/6 424/2/6 440/2/6
f 424/2/6 425/2/6 440/2/6
f 440/2/6 426/2/6 441/2/6
f 441/2/6 426/2/6 442/2/6
f 430/2/6 431/2/6 443/2/6
f 431/2/6 432/2/6 443/2/6
f 432/2/6 416/2/6 444/2/6
f 443/2/6 432/2/6 444/2/6
f 416/3/6 417/3/6 445/3/6
f 444/2/6 416/2/6 445/2/6
f 417/2/6 418/2/6 446/2/6
f 445/3/6 417/3/6 446/3/6
f 418/3/6 419/3/6 447/3/6
f 446/2/6 418/2/6 447/2/6
f 419/2/6 420/2/6 448/2/6
f 447/3/6 419/3/6 448/3/6
f 420/3/6 421/3/6 449/3/6
f 448/2/6 420/2/6 449/2/6
f 433/2/6 434/2/6 450/2/6
f 449/3/6 421/3/6 450/3/6
f 421/2/6 433/2/6 450/2/6
f 450/2/6 434/2/6 451/2/6
f 451/2/6 434/2/6 452/2/6
f 387/1/6 435/1/6 454/1/6
f 438/1/6 390/1/6 455/1/6
f 440/2/6 441/2/6 457/2/6
f 439/2/6 440/2/6 457/2/6
f 457/2/6 441/2/6 458/2/6
f 442/2/6 426/2/6 459/2/6
f 426/3/6 427/3/6 459/3/6
f 427/2/6 428/2/6 460/2/6
f 459/3/6 427/3/6 460/3/6
f 448/2/6 449/2/6 461/2/6
f 444/2/6 445/2/6 461/2/6
f 445/2/6 446/2/6 461/2/6
f 446/2/6 447/2/6 461/2/6
f 447/2/6 448/2/6 461/2/6
f 449/2/6 450/2/6 461/2/6
f 450/2/6 451/2/6 461/2/6
f 461/2/6 451/2/6 462/2/6
f 462/2/6 451/2/6 463/2/6
f 463/2/6 451/2/6 464/2/6
f 464/2/6 451/2/6 465/2/6
f 465/2/6 451/2/6 466/2/6
f 453/1/6 454/1/6 467/1/6
f 454/1/6 435/1/6 468/1/6
f 467/1/6 454/1/6 468/1/6
f 455/1/6 456/1/6 469/1/6
f 438/1/6 455/1/6 469/1/6
f 469/1/6 456/1/6 470/1/6
f 460/2/6 428/2/6 471/2/6
f 429/3/6 430/3/6 471/3/6
f 428/3/6 429/3/6 471/3/6
f 459/2/6 460/2/6 471/2/6
f 430/2/6 443/2/6 472/2/6
f 471/3/6 430/3/6 472/3/6
f 444/2/6 461/2/6 473/2/6
f 473/2/6 461/2/6 474/2/6
f 474/2/6 461/2/6 475/2/6
f 475/2/6 461/2/6 476/2/6
f 476/2/6 461/2/6 477/2/6
f 477/2/6 461/2/6 478/2/6
f 441/3/6 442/3/6 479/3/6
f 442/2/6 459/2/6 480/2/6
f 479/3/6 442/3/6 480/3/6
f 459/2/6 471/2/6 480/2/6
f 471/2/6 472/2/6 480/2/6
f 480/2/6 472/2/6 481/2/6
f 481/2/6 472/2/6 482/2/6
f 443/3/6 444/3/6 483/3/6
f 482/2/6 472/2/6 483/2/6
f 472/2/6 443/2/6 483/2/6
f 444/2/6 473/2/6 484/2/6
f 483/3/6 444/3/6 484/3/6
f 473/3/6 474/3/6 485/3/6
f 484/2/6 473/2/6 485/2/6
f 474/2/6 475/2/6 486/2/6
f 485/3/6 474/3/6 486/3/6
f 475/3/6 476/3/6 487/3/6
f 486/2/6 475/2/6 487/2/6
f 476/2/6 477/2/6 488/2/6
f 487/3/6 476/3/6 488/3/6
f 477/3/6 478/3/6 489/3/6
f 488/2/6 477/2/6 489/2/6
f 478/2/6 461/2/6 490/2/6
f 489/3/6 478/3/6 490/3/6
f 461/3/6 462/3/6 491/3/6
f 490/2/6 461/2/6 491/2/6
f 462/2/6 463/2/6 492/2/6
f 491/3/6 462/3/6 492/3/6
f 463/3/6 464/3/6 493/3/6
f 492/2/6 463/2/6 493/2/6
f 464/2/6 465/2/6 494/2/6
f 493/3/6 464/3/6 494/3/6
f 465/3/6 466/3/6 495/3/6
f 494/2/6 465/2/6 495/2/6
f 466/2/6 451/2/6 496/2/6
f 495/3/6 466/3/6 496/3/6
f 457/3/6 458/3/6 497/3/6
f 458/2/6 441/2/6 498/2/6
f 497/3/6 458/3/6 498/3/6
f 494/2/6 495/2/6 499/2/6
f 487/2/6 488/2/6 499/2/6
f 492/2/6 493/2/6 499/2/6
f 495/2/6 496/2/6 499/2/6
f 488/2/6 489/2/6 499/2/6
f 485/2/6 486/2/6 499/2/6
f 484/2/6 485/2/6 499/2/6
f 483/2/6 484/2/6 499/2/6
f 482/2/6 483/2/6 499/2/6
f 486/2/6 487/2/6 499/2/6
f 489/2/6 490/2/6 499/2/6
f 491/2/6 492/2/6 499/2/6
f 493/2/6 494/2/6 499/2/6
f 481/3/6 482/3/6 499/3/6
f 490/2/6 491/2/6 499/2/6
f 499/2/6 496/2/6 500/2/6
f 500/2/6 496/2/6 501/2/6
f 501/2/6 496/2/6 502/2/6
f 502/2/6 496/2/6 503/2/6
f 503/2/6 496/2/6 504/2/6
f 504/2/6 496/2/6 505/2/6
f 505/2/6 496/2/6 506/2/6
f 506/2/6 496/2/6 507/2/6
f 507/2/6 496/2/6 508/2/6
f 508/2/6 496/2/6 509/2/6
f 509/2/6 496/2/6 510/2/6
f 510/2/6 496/2/6 511/2/6
f 511/2/6 496/2/6 512/2/6
f 512/2/6 496/2/6 513/2/6
f 496/2/6 451/2/6 514/2/6
f 513/2/6 496/2/6 514/2/6
f 451/3/6 452/3/6 515/3/6
f 514/2/6 451/2/6 515/2/6
f 515/3/6 452/3/6 516/3/6
f 498/2/6 441/2/6 517/2/6
f 497/2/6 498/2/6 517/2/6
f 441/3/6 479/3/6 518/3/6
f 517/2/6 441/2/6 518/2/6
f 518/3/6 479/3/6 519/3/6
f 479/2/6 480/2/6 520/2/6
f 519/3/6 479/3/6 520/3/6
f 480/2/6 481/2/6 520/2/6
f 481/3/6 499/3/6 521/3/6
f 520/2/6 481/2/6 521/2/6
f 499/3/6 500/3/6 521/3/6
f 521/3/6 500/3/6 522/3/6
f 500/2/6 501/2/6 523/2/6
f 522/3/6 500/3/6 523/3/6
f 501/3/6 502/3/6 524/3/6
f 523/2/6 501/2/6 524/2/6
f 502/2/6 503/2/6 525/2/6
f 503/3/6 504/3/6 525/3/6
f 504/2/6 505/2/6 526/2/6
f 525/3/6 504/3/6 526/3/6
f 505/3/6 506/3/6 527/3/6
f 526/2/6 505/2/6 527/2/6
f 506/2/6 507/2/6 528/2/6
f 527/3/6 506/3/6 528/3/6
f 507/3/6 508/3/6 529/3/6
f 528/2/6 507/2/6 529/2/6
f 508/2/6 509/2/6 530/2/6
f 529/3/6 508/3/6 530/3/6
f 515/2/6 516/2/6 531/2/6
f 514/2/6 515/2/6 531/2/6
f 531/2/6 516/2/6 532/2/6
f 497/2/6 517/2/6 533/2/6
f 533/2/6 517/2/6 534/2/6
f 519/2/6 520/2/6 535/2/6
f 521/2/6 522/2/6 535/2/6
f 520/2/6 521/2/6 535/2/6
f 522/3/6 523/3/6 536/3/6
f 535/2/6 522/2/6 536/2/6
f 523/3/6 524/3/6 536/3/6
f 536/3/6 524/3/6 537/3/6
f 524/3/6 502/3/6 538/3/6
f 537/3/6 524/3/6 538/3/6
f 529/2/6 530/2/6 539/2/6
f 538/3/6 502/3/6 539/3/6
f 502/2/6 525/2/6 539/2/6
f 525/2/6 526/2/6 539/2/6
f 526/2/6 527/2/6 539/2/6
f 527/2/6 528/2/6 539/2/6
f 528/2/6 529/2/6 539/2/6
f 539/2/6 530/2/6 540/2/6
f 540/2/6 530/2/6 541/2/6
f 541/2/6 530/2/6 542/2/6
f 542/2/6 530/2/6 543/2/6
f 543/2/6 530/2/6 544/2/6
f 530/2/6 509/2/6 545/2/6
f 544/2/6 530/2/6 545/2/6
f 509/3/6 510/3/6 546/3/6
f 545/2/6 509/2/6 546/2/6
f 510/2/6 511/2/6 547/2/6
f 546/3/6 510/3/6 547/3/6
f 511/3/6 512/3/6 548/3/6
f 547/2/6 511/2/6 548/2/6
f 512/2/6 513/2/6 549/2/6
f 548/3/6 512/3/6 549/3/6
f 513/3/6 514/3/6 550/3/6
f 549/2/6 513/2/6 550/2/6
f 514/2/6 531/2/6 551/2/6
f 550/3/6 514/3/6 551/3/6
f 531/3/6 532/3/6 552/3/6
f 551/2/6 531/2/6 552/2/6
f 552/3/6 532/3/6 553/3/6
f 518/3/6 519/3/6 554/3/6
f 517/3/6 518/3/6 554/3/6
f 534/2/6 517/2/6 554/2/6
f 519/2/6 535/2/6 555/2/6
f 554/3/6 519/3/6 555/3/6
f 538/2/6 539/2/6 556/2/6
f 539/2/6 540/2/6 556/2/6
f 540/3/6 541/3/6 556/3/6
f 541/2/6 542/2/6 557/2/6
f 556/3/6 541/3/6 557/3/6
f 542/3/6 543/3/6 558/3/6
f 557/2/6 542/2/6 558/2/6
f 543/2/6 544/2/6 559/2/6
f 558/3/6 543/3/6 559/3/6
f 544/3/6 545/3/6 560/3/6
f 559/2/6 544/2/6 560/2/6
f 548/2/6 549/2/6 561/2/6
f 560/3/6 545/3/6 561/3/6
f 552/2/6 553/2/6 561/2/6
f 547/2/6 548/2/6 561/2/6
f 551/2/6 552/2/6 561/2/6
f 550/2/6 551/2/6 561/2/6
f 549/2/6 550/2/6 561/2/6
f 546/2/6 547/2/6 561/2/6
f 545/2/6 546/2/6 561/2/6
f 561/2/6 553/2/6 562/2/6
f 562/2/6 553/2/6 563/2/6
f 563/2/6 553/2/6 564/2/6
f 564/2/6 553/2/6 565/2/6
f 565/2/6 553/2/6 566/2/6
f 566/2/6 553/2/6 567/2/6
f 567/2/6 553/2/6 568/2/6
f 568/2/6 553/2/6 569/2/6
f 569/2/6 553/2/6 570/2/6
f 570/2/6 553/2/6 571/2/6
f 533/3/6 534/3/6 572/3/6
f 554/2/6 555/2/6 573/2/6
f 572/3/6 534/3/6 573/3/6
f 534/2/6 554/2/6 573/2/6
f 555/2/6 535/2/6 574/2/6
f 573/2/6 555/2/6 574/2/6
f 535/3/6 536/3/6 574/3/6
f 536/2/6 537/2/6 575/2/6
f 574/3/6 536/3/6 575/3/6
f 537/3/6 538/3/6 576/3/6
f 575/2/6 537/2/6 576/2/6
f 557/2/6 558/2/6 577/2/6
f 576/3/6 538/3/6 577/3/6
f 559/2/6 560/2/6 577/2/6
f 538/2/6 556/2/6 577/2/6
f 556/2/6 557/2/6 577/2/6
f 558/2/6 559/2/6 577/2/6
f 560/2/6 561/2/6 577/2/6
f 561/2/6 562/2/6 577/2/6
f 562/3/6 563/3/6 578/3/6
f 577/2/6 562/2/6 578/2/6
f 563/2/6 564/2/6 579/2/6
f 578/3/6 563/3/6 579/3/6
f 564/3/6 565/3/6 580/3/6
f 579/2/6 564/2/6 580/2/6
f 565/2/6 566/2/6 581/2/6
f 580/3/6 565/3/6 581/3/6
f 566/3/6 567/3/6 582/3/6
f 581/2/6 566/2/6 582/2/6
f 567/2/6 568/2/6 583/2/6
f 582/3/6 567/3/6 583/3/6
f 568/3/6 569/3/6 584/3/6
f 583/2/6 568/2/6 584/2/6
f 569/2/6 570/2/6 585/2/6
f 584/3/6 569/3/6 585/3/6
f 570/3/6 571/3/6 586/3/6
f 585/2/6 570/2/6 586/2/6
f 586/3/6 571/3/6 587/3/6
f 588/3/6 589/3/6 591/3/6
f 591/3/6 589/3/6 592/3/6
f 590/2/6 591/2/6 594/2/6
f 591/3/6 592/3/6 594/3/6
f 592/2/6 593/2/6 595/2/6
f 594/3/6 592/3/6 595/3/6
f 590/2/6 594/2/6 597/2/6
f 597/2/6 594/2/6 598/2/6
f 595/2/6 593/2/6 599/2/6
f 599/2/6 593/2/6 600/2/6
f 596/2/6 597/2/6 602/2/6
f 600/2/6 601/2/6 605/2/6
f 602/2/6 603/2/6 606/2/6
f 596/2/6 602/2/6 606/2/6
f 606/2/6 603/2/6 607/2/6
f 607/2/6 603/2/6 608/2/6
f 604/2/6 605/2/6 609/2/6
f 605/2/6 601/2/6 610/2/6
f 609/2/6 605/2/6 610/2/6
f 610/2/6 601/2/6 611/2/6
f 607/2/6 608/2/6 612/2/6
f 608/3/6 609/3/6 613/3/6
f 612/2/6 608/2/6 613/2/6
f 609/2/6 610/2/6 614/2/6
f 613/3/6 609/3/6 614/3/6
f 614/2/6 610/2/6 615/2/6
f 616/4/6 617/4/6 619/4/6
f 619/4/6 617/4/6 620/4/6
f 618/3/6 619/3/6 622/3/6
f 619/4/6 620/4/6 623/4/6
f 622/3/6 619/3/6 623/3/6
f 620/3/6 621/3/6 624/3/6
f 623/4/6 620/4/6 624/4/6
f 624/3/6 621/3/6 625/3/6
f 623/4/6 624/4/6 626/4/6
f 626/4/6 624/4/6 627/4/6
