# MagicaVoxel @ Ephtracy

# group
g keypad

# material
mtllib keypad.mtl
usemtl palette

# normals
vn -1 0 0
vn 1 0 0
vn 0 0 1
vn 0 0 -1
vn 0 -1 0
vn 0 1 0

# texcoords
vt 0.0292969 0.5
vt 0.841797 0.5
vt 0.845703 0.5
vt 0.994141 0.5

# verts
v -20 0 1
v -20 0 -1
v -20 5 1
v -20 5 -1
v -19 5 1
v -19 5 -1
v -19 38 1
v -19 38 -1
v 10 38 1
v 10 38 -1
v 10 39 1
v 10 39 -1
v 14 39 1
v 14 39 -1
v 14 40 1
v 14 40 -1
v 20 0 1
v 20 0 -1
v 20 40 1
v 20 40 -1
v -20 0 1
v -20 5 1
v -19 5 1
v -19 38 1
v -17 2 1
v -17 9 1
v -17 11 1
v -17 18 1
v -17 20 1
v -17 27 1
v -17 29 1
v -17 36 1
v -10 2 1
v -10 9 1
v -10 11 1
v -10 18 1
v -10 20 1
v -10 27 1
v -10 29 1
v -10 36 1
v -8 2 1
v -8 9 1
v -8 11 1
v -8 18 1
v -8 20 1
v -8 27 1
v -8 29 1
v -8 36 1
v -1 2 1
v -1 9 1
v -1 11 1
v -1 18 1
v -1 20 1
v -1 27 1
v -1 29 1
v -1 36 1
v 1 2 1
v 1 9 1
v 1 11 1
v 1 18 1
v 1 20 1
v 1 27 1
v 1 29 1
v 1 36 1
v 8 2 1
v 8 9 1
v 8 11 1
v 8 18 1
v 8 20 1
v 8 27 1
v 8 29 1
v 8 36 1
v 10 38 1
v 10 39 1
v 11 17 1
v 11 19 1
v 12 14 1
v 12 16 1
v 12 23 1
v 12 26 1
v 12 31 1
v 12 34 1
v 13 11 1
v 13 13 1
v 13 22 1
v 13 23 1
v 13 26 1
v 13 27 1
v 13 30 1
v 13 31 1
v 13 34 1
v 13 35 1
v 14 8 1
v 14 10 1
v 14 39 1
v 14 40 1
v 15 5 1
v 15 7 1
v 16 2 1
v 16 4 1
v 16 22 1
v 16 23 1
v 16 26 1
v 16 27 1
v 16 30 1
v 16 31 1
v 16 34 1
v 16 35 1
v 17 2 1
v 17 4 1
v 17 5 1
v 17 7 1
v 17 8 1
v 17 10 1
v 17 11 1
v 17 13 1
v 17 14 1
v 17 16 1
v 17 17 1
v 17 19 1
v 17 23 1
v 17 26 1
v 17 31 1
v 17 34 1
v 20 0 1
v 20 40 1
v -20 0 -1
v -20 5 -1
v -19 5 -1
v -19 38 -1
v 10 38 -1
v 10 39 -1
v 14 39 -1
v 14 40 -1
v 20 0 -1
v 20 40 -1
v -20 0 1
v 20 0 1
v -20 0 -1
v 20 0 -1
v -20 5 1
v -19 5 1
v -20 5 -1
v -19 5 -1
v -19 38 1
v 10 38 1
v -19 38 -1
v 10 38 -1
v 10 39 1
v 14 39 1
v 10 39 -1
v 14 39 -1
v 14 40 1
v 20 40 1
v 14 40 -1
v 20 40 -1

# faces
f 3/4/1 2/4/1 1/4/1
f 4/4/1 2/4/1 3/4/1
f 7/4/1 6/4/1 5/4/1
f 8/4/1 6/4/1 7/4/1
f 11/4/1 10/4/1 9/4/1
f 12/4/1 10/4/1 11/4/1
f 15/4/1 14/4/1 13/4/1
f 16/4/1 14/4/1 15/4/1
f 17/4/2 18/4/2 19/4/2
f 19/4/2 18/4/2 20/4/2
f 23/4/3 22/4/3 21/4/3
f 25/4/3 23/4/3 21/4/3
f 25/4/3 24/4/3 23/4/3
f 26/4/3 24/4/3 25/4/3
f 27/4/3 24/4/3 26/4/3
f 28/4/3 24/4/3 27/4/3
f 29/4/3 24/4/3 28/4/3
f 30/4/3 24/4/3 29/4/3
f 31/4/3 24/4/3 30/4/3
f 32/4/3 24/4/3 31/4/3
f 33/4/3 25/4/3 21/4/3
f 33/2/3 26/2/3 25/2/3
f 34/4/3 27/4/3 26/4/3
f 34/2/3 26/2/3 33/2/3
f 35/3/3 28/3/3 27/3/3
f 35/4/3 27/4/3 34/4/3
f 36/4/3 29/4/3 28/4/3
f 36/3/3 28/3/3 35/3/3
f 37/3/3 30/3/3 29/3/3
f 37/4/3 29/4/3 36/4/3
f 38/4/3 31/4/3 30/4/3
f 38/3/3 30/3/3 37/3/3
f 39/3/3 32/3/3 31/3/3
f 39/4/3 31/4/3 38/4/3
f 40/4/3 24/4/3 32/4/3
f 40/3/3 32/3/3 39/3/3
f 41/4/3 39/4/3 38/4/3
f 41/4/3 38/4/3 37/4/3
f 41/4/3 40/4/3 39/4/3
f 41/4/3 37/4/3 36/4/3
f 41/4/3 36/4/3 35/4/3
f 41/4/3 35/4/3 34/4/3
f 41/4/3 34/4/3 33/4/3
f 41/4/3 33/4/3 21/4/3
f 42/4/3 40/4/3 41/4/3
f 43/4/3 40/4/3 42/4/3
f 44/4/3 40/4/3 43/4/3
f 45/4/3 40/4/3 44/4/3
f 46/4/3 40/4/3 45/4/3
f 47/4/3 40/4/3 46/4/3
f 48/4/3 24/4/3 40/4/3
f 48/4/3 40/4/3 47/4/3
f 49/4/3 41/4/3 21/4/3
f 49/2/3 42/2/3 41/2/3
f 50/4/3 43/4/3 42/4/3
f 50/2/3 42/2/3 49/2/3
f 51/3/3 44/3/3 43/3/3
f 51/4/3 43/4/3 50/4/3
f 52/4/3 45/4/3 44/4/3
f 52/3/3 44/3/3 51/3/3
f 53/3/3 46/3/3 45/3/3
f 53/4/3 45/4/3 52/4/3
f 54/4/3 47/4/3 46/4/3
f 54/3/3 46/3/3 53/3/3
f 55/3/3 48/3/3 47/3/3
f 55/4/3 47/4/3 54/4/3
f 56/4/3 24/4/3 48/4/3
f 56/3/3 48/3/3 55/3/3
f 57/4/3 53/4/3 52/4/3
f 57/4/3 55/4/3 54/4/3
f 57/4/3 56/4/3 55/4/3
f 57/4/3 52/4/3 51/4/3
f 57/4/3 51/4/3 50/4/3
f 57/4/3 50/4/3 49/4/3
f 57/4/3 49/4/3 21/4/3
f 57/4/3 54/4/3 53/4/3
f 58/4/3 56/4/3 57/4/3
f 59/4/3 56/4/3 58/4/3
f 60/4/3 56/4/3 59/4/3
f 61/4/3 56/4/3 60/4/3
f 62/4/3 56/4/3 61/4/3
f 63/4/3 56/4/3 62/4/3
f 64/4/3 24/4/3 56/4/3
f 64/4/3 56/4/3 63/4/3
f 65/4/3 57/4/3 21/4/3
f 65/2/3 58/2/3 57/2/3
f 66/4/3 59/4/3 58/4/3
f 66/2/3 58/2/3 65/2/3
f 67/3/3 60/3/3 59/3/3
f 67/4/3 59/4/3 66/4/3
f 68/4/3 61/4/3 60/4/3
f 68/3/3 60/3/3 67/3/3
f 69/3/3 62/3/3 61/3/3
f 69/4/3 61/4/3 68/4/3
f 70/4/3 63/4/3 62/4/3
f 70/3/3 62/3/3 69/3/3
f 71/3/3 64/3/3 63/3/3
f 71/4/3 63/4/3 70/4/3
f 72/4/3 24/4/3 64/4/3
f 72/3/3 64/3/3 71/3/3
f 73/4/3 69/4/3 68/4/3
f 73/4/3 24/4/3 72/4/3
f 73/4/3 72/4/3 71/4/3
f 73/4/3 68/4/3 67/4/3
f 73/4/3 67/4/3 66/4/3
f 73/4/3 66/4/3 65/4/3
f 73/4/3 71/4/3 70/4/3
f 73/4/3 70/4/3 69/4/3
f 75/4/3 73/4/3 65/4/3
f 75/4/3 74/4/3 73/4/3
f 76/4/3 74/4/3 75/4/3
f 77/4/3 75/4/3 65/4/3
f 78/4/3 75/4/3 77/4/3
f 79/4/3 74/4/3 76/4/3
f 80/4/3 74/4/3 79/4/3
f 81/4/3 74/4/3 80/4/3
f 82/4/3 74/4/3 81/4/3
f 83/4/3 77/4/3 65/4/3
f 84/4/3 77/4/3 83/4/3
f 85/4/3 79/4/3 76/4/3
f 86/1/3 80/1/3 79/1/3
f 86/4/3 79/4/3 85/4/3
f 87/4/3 81/4/3 80/4/3
f 87/1/3 80/1/3 86/1/3
f 88/4/3 81/4/3 87/4/3
f 89/4/3 81/4/3 88/4/3
f 90/1/3 82/1/3 81/1/3
f 90/4/3 81/4/3 89/4/3
f 91/4/3 74/4/3 82/4/3
f 91/1/3 82/1/3 90/1/3
f 92/4/3 74/4/3 91/4/3
f 93/4/3 83/4/3 65/4/3
f 94/4/3 83/4/3 93/4/3
f 95/4/3 74/4/3 92/4/3
f 97/4/3 93/4/3 65/4/3
f 98/4/3 93/4/3 97/4/3
f 99/4/3 65/4/3 21/4/3
f 99/4/3 97/4/3 65/4/3
f 100/4/3 97/4/3 99/4/3
f 101/4/3 85/4/3 76/4/3
f 101/1/3 86/1/3 85/1/3
f 101/1/3 87/1/3 86/1/3
f 101/1/3 88/1/3 87/1/3
f 102/1/3 88/1/3 101/1/3
f 103/1/3 88/1/3 102/1/3
f 104/4/3 89/4/3 88/4/3
f 104/1/3 88/1/3 103/1/3
f 105/1/3 90/1/3 89/1/3
f 105/4/3 89/4/3 104/4/3
f 105/1/3 91/1/3 90/1/3
f 105/1/3 92/1/3 91/1/3
f 106/1/3 92/1/3 105/1/3
f 107/1/3 92/1/3 106/1/3
f 108/4/3 96/4/3 95/4/3
f 108/1/3 92/1/3 107/1/3
f 108/4/3 95/4/3 92/4/3
f 109/1/3 100/1/3 99/1/3
f 109/4/3 99/4/3 21/4/3
f 110/4/3 97/4/3 100/4/3
f 110/1/3 100/1/3 109/1/3
f 111/1/3 98/1/3 97/1/3
f 111/4/3 97/4/3 110/4/3
f 112/4/3 93/4/3 98/4/3
f 112/1/3 98/1/3 111/1/3
f 113/1/3 94/1/3 93/1/3
f 113/4/3 93/4/3 112/4/3
f 114/4/3 83/4/3 94/4/3
f 114/1/3 94/1/3 113/1/3
f 115/1/3 84/1/3 83/1/3
f 115/4/3 83/4/3 114/4/3
f 116/4/3 77/4/3 84/4/3
f 116/1/3 84/1/3 115/1/3
f 117/1/3 78/1/3 77/1/3
f 117/4/3 77/4/3 116/4/3
f 118/4/3 75/4/3 78/4/3
f 118/1/3 78/1/3 117/1/3
f 119/1/3 76/1/3 75/1/3
f 119/4/3 75/4/3 118/4/3
f 120/4/3 102/4/3 101/4/3
f 120/1/3 76/1/3 119/1/3
f 120/4/3 101/4/3 76/4/3
f 121/1/3 103/1/3 102/1/3
f 121/4/3 102/4/3 120/4/3
f 122/4/3 104/4/3 103/4/3
f 122/1/3 103/1/3 121/1/3
f 122/4/3 105/4/3 104/4/3
f 122/4/3 106/4/3 105/4/3
f 123/1/3 107/1/3 106/1/3
f 123/4/3 106/4/3 122/4/3
f 124/4/3 108/4/3 107/4/3
f 124/1/3 107/1/3 123/1/3
f 125/4/3 111/4/3 110/4/3
f 125/4/3 117/4/3 116/4/3
f 125/4/3 124/4/3 123/4/3
f 125/4/3 122/4/3 121/4/3
f 125/4/3 112/4/3 111/4/3
f 125/4/3 119/4/3 118/4/3
f 125/4/3 110/4/3 109/4/3
f 125/4/3 123/4/3 122/4/3
f 125/4/3 114/4/3 113/4/3
f 125/4/3 113/4/3 112/4/3
f 125/4/3 120/4/3 119/4/3
f 125/4/3 118/4/3 117/4/3
f 125/4/3 109/4/3 21/4/3
f 125/4/3 115/4/3 114/4/3
f 125/4/3 116/4/3 115/4/3
f 125/4/3 121/4/3 120/4/3
f 126/4/3 108/4/3 124/4/3
f 126/4/3 124/4/3 125/4/3
f 126/4/3 96/4/3 108/4/3
f 127/4/4 128/4/4 129/4/4
f 129/4/4 130/4/4 131/4/4
f 131/4/4 132/4/4 133/4/4
f 127/4/4 129/4/4 135/4/4
f 133/4/4 134/4/4 135/4/4
f 131/4/4 133/4/4 135/4/4
f 129/4/4 131/4/4 135/4/4
f 135/4/4 134/4/4 136/4/4
f 139/4/5 138/4/5 137/4/5
f 140/4/5 138/4/5 139/4/5
f 141/4/6 142/4/6 143/4/6
f 143/4/6 142/4/6 144/4/6
f 145/4/6 146/4/6 147/4/6
f 147/4/6 146/4/6 148/4/6
f 149/4/6 150/4/6 151/4/6
f 151/4/6 150/4/6 152/4/6
f 153/4/6 154/4/6 155/4/6
f 155/4/6 154/4/6 156/4/6
