# MagicaVoxel @ Ephtracy

# group
g lamp

# material
mtllib lamp.mtl
usemtl palette

# normals
vn -1 0 0
vn 1 0 0
vn 0 0 1
vn 0 0 -1
vn 0 -1 0
vn 0 1 0

# texcoords
vt 0.0292969 0.5
vt 0.974609 0.5
vt 0.978516 0.5

# verts
v -5 0 25
v -5 0 -4
v -5 4 25
v -5 4 -4
v -4 4 23
v -4 4 -1
v -4 5 14
v -4 5 -1
v -4 6 19
v -4 6 14
v -4 7 21
v -4 7 19
v -4 55 21
v -4 55 17
v -4 56 17
v -4 56 13
v -4 57 23
v -4 57 19
v -4 57 13
v -4 57 8
v -4 58 19
v -4 58 14
v -4 58 8
v -4 58 4
v -4 59 14
v -4 59 9
v -4 59 4
v -4 59 -0
v -4 60 9
v -4 60 5
v -4 60 -0
v -4 60 -5
v -4 61 5
v -4 61 1
v -4 61 -5
v -4 61 -10
v -4 62 1
v -4 62 -4
v -4 62 -10
v -4 62 -15
v -4 63 -4
v -4 63 -9
v -4 63 -15
v -4 63 -20
v -4 64 -9
v -4 64 -14
v -4 65 -14
v -4 65 -20
v -3 63 -20
v -3 63 -21
v -3 65 -20
v -3 65 -21
v 3 63 -20
v 3 63 -21
v 3 65 -20
v 3 65 -21
v 4 4 23
v 4 4 -1
v 4 5 14
v 4 5 -1
v 4 6 19
v 4 6 14
v 4 7 21
v 4 7 19
v 4 55 21
v 4 55 17
v 4 56 17
v 4 56 13
v 4 57 23
v 4 57 19
v 4 57 13
v 4 57 8
v 4 58 19
v 4 58 14
v 4 58 8
v 4 58 4
v 4 59 14
v 4 59 9
v 4 59 4
v 4 59 -0
v 4 60 9
v 4 60 5
v 4 60 -0
v 4 60 -5
v 4 61 5
v 4 61 1
v 4 61 -5
v 4 61 -10
v 4 62 1
v 4 62 -4
v 4 62 -10
v 4 62 -15
v 4 63 -4
v 4 63 -9
v 4 63 -15
v 4 63 -20
v 4 64 -9
v 4 64 -14
v 4 65 -14
v 4 65 -20
v 5 0 25
v 5 0 -4
v 5 4 25
v 5 4 -4
v -5 0 25
v -5 4 25
v 5 0 25
v 5 4 25
v -4 4 23
v -4 57 23
v 4 4 23
v 4 57 23
v -4 57 19
v -4 58 19
v 4 57 19
v 4 58 19
v -4 58 14
v -4 59 14
v 4 58 14
v 4 59 14
v -4 59 9
v -4 60 9
v 4 59 9
v 4 60 9
v -4 60 5
v -4 61 5
v 4 60 5
v 4 61 5
v -4 61 1
v -4 62 1
v 4 61 1
v 4 62 1
v -4 62 -4
v -4 63 -4
v 4 62 -4
v 4 63 -4
v -4 63 -9
v -4 64 -9
v 4 63 -9
v 4 64 -9
v -4 64 -14
v -4 65 -14
v 4 64 -14
v 4 65 -14
v -4 7 21
v -4 55 21
v 4 7 21
v 4 55 21
v -4 6 19
v -4 7 19
v 4 6 19
v 4 7 19
v -4 55 17
v -4 56 17
v 4 55 17
v 4 56 17
v -4 5 14
v -4 6 14
v 4 5 14
v 4 6 14
v -4 56 13
v -4 57 13
v 4 56 13
v 4 57 13
v -4 57 8
v -4 58 8
v 4 57 8
v 4 58 8
v -4 58 4
v -4 59 4
v -3 58 4
v -3 59 4
v 3 58 4
v 3 59 4
v 4 58 4
v 4 59 4
v -4 59 -0
v -4 60 -0
v -3 59 -0
v -3 60 -0
v 3 59 -0
v 3 60 -0
v 4 59 -0
v 4 60 -0
v -4 4 -1
v -4 5 -1
v 4 4 -1
v 4 5 -1
v -5 0 -4
v -5 4 -4
v 5 0 -4
v 5 4 -4
v -4 60 -5
v -4 61 -5
v -3 60 -5
v -3 61 -5
v 3 60 -5
v 3 61 -5
v 4 60 -5
v 4 61 -5
v -4 61 -10
v -4 62 -10
v -3 61 -10
v -3 62 -10
v 3 61 -10
v 3 62 -10
v 4 61 -10
v 4 62 -10
v -4 62 -15
v -4 63 -15
v -3 62 -15
v -3 63 -15
v 3 62 -15
v 3 63 -15
v 4 62 -15
v 4 63 -15
v -4 63 -20
v -4 65 -20
v -3 63 -20
v -3 65 -20
v 3 63 -20
v 3 65 -20
v 4 63 -20
v 4 65 -20
v -3 63 -21
v -3 65 -21
v 3 63 -21
v 3 65 -21
v -5 0 25
v 5 0 25
v -5 0 -4
v 5 0 -4
v -4 55 21
v 4 55 21
v -4 55 17
v 4 55 17
v -4 56 17
v 4 56 17
v -4 56 13
v 4 56 13
v -4 57 13
v 4 57 13
v -4 57 8
v 4 57 8
v -4 58 8
v 4 58 8
v -3 58 7
v 3 58 7
v -4 58 4
v -3 58 4
v 3 58 4
v 4 58 4
v -4 59 4
v -3 59 4
v 3 59 4
v 4 59 4
v -4 59 -0
v -3 59 -0
v 3 59 -0
v 4 59 -0
v -4 60 -0
v -3 60 -0
v 3 60 -0
v 4 60 -0
v -4 60 -5
v -3 60 -5
v 3 60 -5
v 4 60 -5
v -4 61 -5
v -3 61 -5
v 3 61 -5
v 4 61 -5
v -4 61 -10
v -3 61 -10
v 3 61 -10
v 4 61 -10
v -4 62 -10
v -3 62 -10
v 3 62 -10
v 4 62 -10
v -4 62 -15
v -3 62 -15
v 3 62 -15
v 4 62 -15
v -4 63 -15
v -3 63 -15
v 3 63 -15
v 4 63 -15
v -3 63 -19
v -2 63 -19
v 2 63 -19
v 3 63 -19
v -4 63 -20
v -3 63 -20
v -2 63 -20
v 2 63 -20
v 3 63 -20
v 4 63 -20
v -3 63 -21
v 3 63 -21
v -5 4 25
v 5 4 25
v -4 4 23
v 4 4 23
v -4 4 -1
v 4 4 -1
v -5 4 -4
v 5 4 -4
v -4 5 14
v 4 5 14
v -4 5 -1
v 4 5 -1
v -4 6 19
v 4 6 19
v -4 6 14
v 4 6 14
v -4 7 21
v 4 7 21
v -4 7 19
v 4 7 19
v -4 57 23
v 4 57 23
v -4 57 19
v 4 57 19
v -4 58 19
v 4 58 19
v -4 58 14
v 4 58 14
v -4 59 14
v 4 59 14
v -4 59 9
v 4 59 9
v -4 60 9
v 4 60 9
v -4 60 5
v 4 60 5
v -4 61 5
v 4 61 5
v -4 61 1
v 4 61 1
v -4 62 1
v 4 62 1
v -4 62 -4
v 4 62 -4
v -4 63 -4
v 4 63 -4
v -4 63 -9
v 4 63 -9
v -4 64 -9
v 4 64 -9
v -4 64 -14
v 4 64 -14
v -4 65 -14
v 4 65 -14
v -4 65 -20
v -3 65 -20
v 3 65 -20
v 4 65 -20
v -3 65 -21
v 3 65 -21

# faces
f 3/2/1 2/2/1 1/2/1
f 4/2/1 2/2/1 3/2/1
f 7/3/1 6/3/1 5/3/1
f 8/3/1 6/3/1 7/3/1
f 9/3/1 7/3/1 5/3/1
f 10/3/1 7/3/1 9/3/1
f 11/3/1 9/3/1 5/3/1
f 12/3/1 9/3/1 11/3/1
f 13/3/1 11/3/1 5/3/1
f 15/3/1 14/3/1 13/3/1
f 17/3/1 15/3/1 13/3/1
f 17/3/1 16/3/1 15/3/1
f 17/3/1 13/3/1 5/3/1
f 18/3/1 16/3/1 17/3/1
f 19/3/1 16/3/1 18/3/1
f 21/3/1 20/3/1 19/3/1
f 21/3/1 19/3/1 18/3/1
f 22/3/1 20/3/1 21/3/1
f 23/3/1 20/3/1 22/3/1
f 25/3/1 24/3/1 23/3/1
f 25/3/1 23/3/1 22/3/1
f 26/3/1 24/3/1 25/3/1
f 27/3/1 24/3/1 26/3/1
f 29/3/1 28/3/1 27/3/1
f 29/3/1 27/3/1 26/3/1
f 30/3/1 28/3/1 29/3/1
f 31/3/1 28/3/1 30/3/1
f 33/3/1 31/3/1 30/3/1
f 33/3/1 32/3/1 31/3/1
f 34/3/1 32/3/1 33/3/1
f 35/3/1 32/3/1 34/3/1
f 37/3/1 36/3/1 35/3/1
f 37/3/1 35/3/1 34/3/1
f 38/3/1 36/3/1 37/3/1
f 39/3/1 36/3/1 38/3/1
f 41/3/1 40/3/1 39/3/1
f 41/3/1 39/3/1 38/3/1
f 42/3/1 40/3/1 41/3/1
f 43/3/1 40/3/1 42/3/1
f 45/3/1 44/3/1 43/3/1
f 45/3/1 43/3/1 42/3/1
f 46/3/1 44/3/1 45/3/1
f 47/3/1 44/3/1 46/3/1
f 48/3/1 44/3/1 47/3/1
f 51/3/1 50/3/1 49/3/1
f 52/3/1 50/3/1 51/3/1
f 53/3/2 54/3/2 55/3/2
f 55/3/2 54/3/2 56/3/2
f 57/3/2 58/3/2 59/3/2
f 59/3/2 58/3/2 60/3/2
f 57/3/2 59/3/2 61/3/2
f 61/3/2 59/3/2 62/3/2
f 57/3/2 61/3/2 63/3/2
f 63/3/2 61/3/2 64/3/2
f 57/3/2 63/3/2 65/3/2
f 65/3/2 66/3/2 67/3/2
f 65/3/2 67/3/2 69/3/2
f 67/3/2 68/3/2 69/3/2
f 57/3/2 65/3/2 69/3/2
f 69/3/2 68/3/2 70/3/2
f 70/3/2 68/3/2 71/3/2
f 71/3/2 72/3/2 73/3/2
f 70/3/2 71/3/2 73/3/2
f 73/3/2 72/3/2 74/3/2
f 74/3/2 72/3/2 75/3/2
f 75/3/2 76/3/2 77/3/2
f 74/3/2 75/3/2 77/3/2
f 77/3/2 76/3/2 78/3/2
f 78/3/2 76/3/2 79/3/2
f 79/3/2 80/3/2 81/3/2
f 78/3/2 79/3/2 81/3/2
f 81/3/2 80/3/2 82/3/2
f 82/3/2 80/3/2 83/3/2
f 82/3/2 83/3/2 85/3/2
f 83/3/2 84/3/2 85/3/2
f 85/3/2 84/3/2 86/3/2
f 86/3/2 84/3/2 87/3/2
f 87/3/2 88/3/2 89/3/2
f 86/3/2 87/3/2 89/3/2
f 89/3/2 88/3/2 90/3/2
f 90/3/2 88/3/2 91/3/2
f 91/3/2 92/3/2 93/3/2
f 90/3/2 91/3/2 93/3/2
f 93/3/2 92/3/2 94/3/2
f 94/3/2 92/3/2 95/3/2
f 95/3/2 96/3/2 97/3/2
f 94/3/2 95/3/2 97/3/2
f 97/3/2 96/3/2 98/3/2
f 98/3/2 96/3/2 99/3/2
f 99/3/2 96/3/2 100/3/2
f 101/2/2 102/2/2 103/2/2
f 103/2/2 102/2/2 104/2/2
f 107/2/3 106/2/3 105/2/3
f 108/2/3 106/2/3 107/2/3
f 111/3/3 110/3/3 109/3/3
f 112/3/3 110/3/3 111/3/3
f 115/3/3 114/3/3 113/3/3
f 116/3/3 114/3/3 115/3/3
f 119/3/3 118/3/3 117/3/3
f 120/3/3 118/3/3 119/3/3
f 123/3/3 122/3/3 121/3/3
f 124/3/3 122/3/3 123/3/3
f 127/3/3 126/3/3 125/3/3
f 128/3/3 126/3/3 127/3/3
f 131/3/3 130/3/3 129/3/3
f 132/3/3 130/3/3 131/3/3
f 135/3/3 134/3/3 133/3/3
f 136/3/3 134/3/3 135/3/3
f 139/3/3 138/3/3 137/3/3
f 140/3/3 138/3/3 139/3/3
f 143/3/3 142/3/3 141/3/3
f 144/3/3 142/3/3 143/3/3
f 145/3/4 146/3/4 147/3/4
f 147/3/4 146/3/4 148/3/4
f 149/3/4 150/3/4 151/3/4
f 151/3/4 150/3/4 152/3/4
f 153/3/4 154/3/4 155/3/4
f 155/3/4 154/3/4 156/3/4
f 157/3/4 158/3/4 159/3/4
f 159/3/4 158/3/4 160/3/4
f 161/3/4 162/3/4 163/3/4
f 163/3/4 162/3/4 164/3/4
f 165/3/4 166/3/4 167/3/4
f 167/3/4 166/3/4 168/3/4
f 169/3/4 170/3/4 171/3/4
f 171/3/4 170/3/4 172/3/4
f 171/1/4 172/1/4 173/1/4
f 173/1/4 172/1/4 174/1/4
f 173/3/4 174/3/4 175/3/4
f 175/3/4 174/3/4 176/3/4
f 177/3/4 178/3/4 179/3/4
f 179/3/4 178/3/4 180/3/4
f 179/1/4 180/1/4 181/1/4
f 181/1/4 180/1/4 182/1/4
f 181/3/4 182/3/4 183/3/4
f 183/3/4 182/3/4 184/3/4
f 185/3/4 186/3/4 187/3/4
f 187/3/4 186/3/4 188/3/4
f 189/2/4 190/2/4 191/2/4
f 191/2/4 190/2/4 192/2/4
f 193/3/4 194/3/4 195/3/4
f 195/3/4 194/3/4 196/3/4
f 195/1/4 196/1/4 197/1/4
f 197/1/4 196/1/4 198/1/4
f 197/3/4 198/3/4 199/3/4
f 199/3/4 198/3/4 200/3/4
f 201/3/4 202/3/4 203/3/4
f 203/3/4 202/3/4 204/3/4
f 203/1/4 204/1/4 205/1/4
f 205/1/4 204/1/4 206/1/4
f 205/3/4 206/3/4 207/3/4
f 207/3/4 206/3/4 208/3/4
f 209/3/4 210/3/4 211/3/4
f 211/3/4 210/3/4 212/3/4
f 211/1/4 212/1/4 213/1/4
f 213/1/4 212/1/4 214/1/4
f 213/3/4 214/3/4 215/3/4
f 215/3/4 214/3/4 216/3/4
f 217/3/4 218/3/4 219/3/4
f 219/3/4 218/3/4 220/3/4
f 221/3/4 222/3/4 223/3/4
f 223/3/4 222/3/4 224/3/4
f 225/3/4 226/3/4 227/3/4
f 227/3/4 226/3/4 228/3/4
f 231/2/5 230/2/5 229/2/5
f 232/2/5 230/2/5 231/2/5
f 235/3/5 234/3/5 233/3/5
f 236/3/5 234/3/5 235/3/5
f 239/3/5 238/3/5 237/3/5
f 240/3/5 238/3/5 239/3/5
f 243/3/5 242/3/5 241/3/5
f 244/3/5 242/3/5 243/3/5
f 247/3/5 246/3/5 245/3/5
f 248/3/5 246/3/5 247/3/5
f 249/3/5 247/3/5 245/3/5
f 250/1/5 248/1/5 247/1/5
f 250/3/5 247/3/5 249/3/5
f 251/3/5 246/3/5 248/3/5
f 251/1/5 248/1/5 250/1/5
f 252/3/5 246/3/5 251/3/5
f 257/3/5 254/3/5 253/3/5
f 258/1/5 255/1/5 254/1/5
f 258/3/5 254/3/5 257/3/5
f 259/3/5 256/3/5 255/3/5
f 259/1/5 255/1/5 258/1/5
f 260/3/5 256/3/5 259/3/5
f 265/3/5 262/3/5 261/3/5
f 266/1/5 263/1/5 262/1/5
f 266/3/5 262/3/5 265/3/5
f 267/3/5 264/3/5 263/3/5
f 267/1/5 263/1/5 266/1/5
f 268/3/5 264/3/5 267/3/5
f 273/3/5 270/3/5 269/3/5
f 274/1/5 271/1/5 270/1/5
f 274/3/5 270/3/5 273/3/5
f 275/3/5 272/3/5 271/3/5
f 275/1/5 271/1/5 274/1/5
f 276/3/5 272/3/5 275/3/5
f 281/3/5 278/3/5 277/3/5
f 282/1/5 279/1/5 278/1/5
f 282/3/5 278/3/5 281/3/5
f 283/3/5 280/3/5 279/3/5
f 283/1/5 279/1/5 282/1/5
f 284/3/5 280/3/5 283/3/5
f 289/3/5 286/3/5 285/3/5
f 289/1/5 287/1/5 286/1/5
f 290/1/5 287/1/5 289/1/5
f 291/1/5 287/1/5 290/1/5
f 292/3/5 288/3/5 287/3/5
f 292/1/5 287/1/5 291/1/5
f 293/3/5 289/3/5 285/3/5
f 293/3/5 290/3/5 289/3/5
f 294/3/5 290/3/5 293/3/5
f 295/1/5 291/1/5 290/1/5
f 295/3/5 290/3/5 294/3/5
f 296/3/5 292/3/5 291/3/5
f 296/1/5 291/1/5 295/1/5
f 297/3/5 288/3/5 292/3/5
f 297/3/5 292/3/5 296/3/5
f 298/3/5 288/3/5 297/3/5
f 299/3/5 296/3/5 295/3/5
f 299/3/5 297/3/5 296/3/5
f 299/3/5 295/3/5 294/3/5
f 300/3/5 297/3/5 299/3/5
f 301/2/6 302/2/6 303/2/6
f 303/2/6 302/2/6 304/2/6
f 301/2/6 303/2/6 305/2/6
f 304/2/6 302/2/6 306/2/6
f 301/2/6 305/2/6 307/2/6
f 305/2/6 306/2/6 307/2/6
f 306/2/6 302/2/6 308/2/6
f 307/2/6 306/2/6 308/2/6
f 309/3/6 310/3/6 311/3/6
f 311/3/6 310/3/6 312/3/6
f 313/3/6 314/3/6 315/3/6
f 315/3/6 314/3/6 316/3/6
f 317/3/6 318/3/6 319/3/6
f 319/3/6 318/3/6 320/3/6
f 321/3/6 322/3/6 323/3/6
f 323/3/6 322/3/6 324/3/6
f 325/3/6 326/3/6 327/3/6
f 327/3/6 326/3/6 328/3/6
f 329/3/6 330/3/6 331/3/6
f 331/3/6 330/3/6 332/3/6
f 333/3/6 334/3/6 335/3/6
f 335/3/6 334/3/6 336/3/6
f 337/3/6 338/3/6 339/3/6
f 339/3/6 338/3/6 340/3/6
f 341/3/6 342/3/6 343/3/6
f 343/3/6 342/3/6 344/3/6
f 345/3/6 346/3/6 347/3/6
f 347/3/6 346/3/6 348/3/6
f 349/3/6 350/3/6 351/3/6
f 351/3/6 350/3/6 352/3/6
f 353/3/6 354/3/6 355/3/6
f 355/3/6 354/3/6 356/3/6
f 356/3/6 354/3/6 357/3/6
f 357/3/6 354/3/6 358/3/6
f 356/3/6 357/3/6 359/3/6
f 359/3/6 357/3/6 360/3/6
