# MagicaVoxel @ Ephtracy

# group
g smartPhoneLocked

# material
mtllib smartPhoneLocked.mtl
usemtl palette

# normals
vn -1 0 0
vn 1 0 0
vn 0 0 1
vn 0 0 -1
vn 0 -1 0
vn 0 1 0

# texcoords
vt 0.974609 0.5
vt 0.978516 0.5
vt 0.986328 0.5
vt 0.990234 0.5
vt 0.994141 0.5

# verts
v -18 0 42
v -18 0 -42
v -18 1 3
v -18 1 -4
v -18 1 -7
v -18 1 -13
v -18 1 -15
v -18 1 -21
v -18 2 3
v -18 2 -4
v -18 2 -7
v -18 2 -13
v -18 2 -15
v -18 2 -21
v -18 3 42
v -18 3 -42
v -17 0 43
v -17 0 42
v -17 0 -42
v -17 0 -43
v -17 3 43
v -17 3 42
v -17 3 -42
v -17 3 -43
v -17 4 42
v -17 4 -42
v 17 0 43
v 17 0 42
v 17 0 -42
v 17 0 -43
v 17 3 43
v 17 3 42
v 17 3 -42
v 17 3 -43
v 17 4 42
v 17 4 -42
v 18 0 42
v 18 0 -42
v 18 3 42
v 18 3 -42
v -17 0 43
v -17 3 43
v 17 0 43
v 17 3 43
v -18 0 42
v -18 3 42
v -17 0 42
v -17 3 42
v -17 4 42
v 17 0 42
v 17 3 42
v 17 4 42
v 18 0 42
v 18 3 42
v -18 0 -42
v -18 3 -42
v -17 0 -42
v -17 3 -42
v -17 4 -42
v 17 0 -42
v 17 3 -42
v 17 4 -42
v 18 0 -42
v 18 3 -42
v -17 0 -43
v -17 3 -43
v 17 0 -43
v 17 3 -43
v -17 0 43
v 17 0 43
v -18 0 42
v -17 0 42
v -15 0 42
v -13 0 42
v 17 0 42
v 18 0 42
v -16 0 41
v -15 0 41
v -13 0 41
v -12 0 41
v -16 0 39
v -15 0 39
v -13 0 39
v -12 0 39
v -15 0 38
v -13 0 38
v -18 0 -42
v -17 0 -42
v 17 0 -42
v 18 0 -42
v -17 0 -43
v 17 0 -43
v -17 3 43
v 17 3 43
v -18 3 42
v -17 3 42
v 17 3 42
v 18 3 42
v -18 3 -42
v -17 3 -42
v 17 3 -42
v 18 3 -42
v -17 3 -43
v 17 3 -43
v -17 4 42
v 17 4 42
v 3 4 40
v 4 4 40
v 5 4 40
v 6 4 40
v 7 4 40
v 8 4 40
v 3 4 39
v 4 4 39
v 5 4 39
v 6 4 39
v 7 4 39
v 8 4 39
v -16 4 37
v 16 4 37
v -16 4 -37
v 16 4 -37
v -17 4 -42
v 17 4 -42

# faces
f 3/5/1 2/5/1 1/5/1
f 4/5/1 2/5/1 3/5/1
f 5/5/1 2/5/1 4/5/1
f 6/5/1 2/5/1 5/5/1
f 7/5/1 2/5/1 6/5/1
f 8/5/1 2/5/1 7/5/1
f 9/5/1 3/5/1 1/5/1
f 9/1/1 4/1/1 3/1/1
f 10/5/1 5/5/1 4/5/1
f 10/1/1 4/1/1 9/1/1
f 11/1/1 6/1/1 5/1/1
f 11/5/1 5/5/1 10/5/1
f 12/5/1 7/5/1 6/5/1
f 12/1/1 6/1/1 11/1/1
f 13/1/1 8/1/1 7/1/1
f 13/5/1 7/5/1 12/5/1
f 14/5/1 2/5/1 8/5/1
f 14/1/1 8/1/1 13/1/1
f 15/5/1 13/5/1 12/5/1
f 15/5/1 12/5/1 11/5/1
f 15/5/1 14/5/1 13/5/1
f 15/5/1 11/5/1 10/5/1
f 15/5/1 10/5/1 9/5/1
f 15/5/1 9/5/1 1/5/1
f 16/5/1 2/5/1 14/5/1
f 16/5/1 14/5/1 15/5/1
f 21/5/1 18/5/1 17/5/1
f 22/5/1 18/5/1 21/5/1
f 23/5/1 20/5/1 19/5/1
f 24/5/1 20/5/1 23/5/1
f 25/5/1 23/5/1 22/5/1
f 26/5/1 23/5/1 25/5/1
f 27/5/2 28/5/2 31/5/2
f 31/5/2 28/5/2 32/5/2
f 29/5/2 30/5/2 33/5/2
f 33/5/2 30/5/2 34/5/2
f 32/5/2 33/5/2 35/5/2
f 35/5/2 33/5/2 36/5/2
f 37/5/2 38/5/2 39/5/2
f 39/5/2 38/5/2 40/5/2
f 43/5/3 42/5/3 41/5/3
f 44/5/3 42/5/3 43/5/3
f 47/5/3 46/5/3 45/5/3
f 48/5/3 46/5/3 47/5/3
f 51/5/3 49/5/3 48/5/3
f 52/5/3 49/5/3 51/5/3
f 53/5/3 51/5/3 50/5/3
f 54/5/3 51/5/3 53/5/3
f 55/5/4 56/5/4 57/5/4
f 57/5/4 56/5/4 58/5/4
f 58/5/4 59/5/4 61/5/4
f 61/5/4 59/5/4 62/5/4
f 60/5/4 61/5/4 63/5/4
f 63/5/4 61/5/4 64/5/4
f 65/5/4 66/5/4 67/5/4
f 67/5/4 66/5/4 68/5/4
f 72/5/5 70/5/5 69/5/5
f 73/5/5 70/5/5 72/5/5
f 74/5/5 70/5/5 73/5/5
f 75/5/5 70/5/5 74/5/5
f 77/5/5 72/5/5 71/5/5
f 77/5/5 73/5/5 72/5/5
f 78/3/5 74/3/5 73/3/5
f 78/5/5 73/5/5 77/5/5
f 79/5/5 76/5/5 75/5/5
f 79/3/5 74/3/5 78/3/5
f 79/5/5 75/5/5 74/5/5
f 80/5/5 76/5/5 79/5/5
f 81/3/5 78/3/5 77/3/5
f 81/5/5 77/5/5 71/5/5
f 81/3/5 80/3/5 79/3/5
f 81/3/5 79/3/5 78/3/5
f 82/3/5 80/3/5 81/3/5
f 83/3/5 80/3/5 82/3/5
f 84/5/5 76/5/5 80/5/5
f 84/3/5 80/3/5 83/3/5
f 85/3/5 83/3/5 82/3/5
f 85/5/5 82/5/5 81/5/5
f 86/5/5 84/5/5 83/5/5
f 86/3/5 83/3/5 85/3/5
f 87/5/5 81/5/5 71/5/5
f 87/5/5 85/5/5 81/5/5
f 87/5/5 86/5/5 85/5/5
f 88/5/5 86/5/5 87/5/5
f 89/5/5 76/5/5 84/5/5
f 89/5/5 86/5/5 88/5/5
f 89/5/5 84/5/5 86/5/5
f 90/5/5 76/5/5 89/5/5
f 91/5/5 89/5/5 88/5/5
f 92/5/5 89/5/5 91/5/5
f 93/5/6 94/5/6 96/5/6
f 96/5/6 94/5/6 97/5/6
f 95/5/6 96/5/6 99/5/6
f 99/5/6 96/5/6 100/5/6
f 97/5/6 98/5/6 101/5/6
f 101/5/6 98/5/6 102/5/6
f 100/5/6 101/5/6 103/5/6
f 103/5/6 101/5/6 104/5/6
f 105/5/6 106/5/6 107/5/6
f 107/5/6 106/5/6 108/5/6
f 108/5/6 106/5/6 109/5/6
f 109/5/6 106/5/6 110/5/6
f 110/5/6 106/5/6 111/5/6
f 111/5/6 106/5/6 112/5/6
f 105/5/6 107/5/6 113/5/6
f 107/3/6 108/3/6 113/3/6
f 108/5/6 109/5/6 114/5/6
f 113/3/6 108/3/6 114/3/6
f 109/3/6 110/3/6 115/3/6
f 114/5/6 109/5/6 115/5/6
f 110/5/6 111/5/6 116/5/6
f 115/3/6 110/3/6 116/3/6
f 111/3/6 112/3/6 117/3/6
f 116/5/6 111/5/6 117/5/6
f 112/5/6 106/5/6 118/5/6
f 117/3/6 112/3/6 118/3/6
f 116/5/6 117/5/6 119/5/6
f 115/5/6 116/5/6 119/5/6
f 117/5/6 118/5/6 119/5/6
f 114/5/6 115/5/6 119/5/6
f 113/5/6 114/5/6 119/5/6
f 105/5/6 113/5/6 119/5/6
f 118/5/6 106/5/6 120/5/6
f 119/5/6 118/5/6 120/5/6
f 105/5/6 119/5/6 121/5/6
f 119/4/6 120/4/6 121/4/6
f 120/5/6 106/5/6 122/5/6
f 121/4/6 120/4/6 122/4/6
f 105/5/6 121/5/6 123/5/6
f 121/5/6 122/5/6 123/5/6
f 122/5/6 106/5/6 124/5/6
f 123/5/6 122/5/6 124/5/6
